  0
SECTION
  2
HEADER
  9
$ACADVER
  1
AC1015
  9
$ACADMAINTVER
 70
     6
  9
$DWGCODEPAGE
  3
ANSI_1257
  9
$INSBASE
 10
0.0
 20
0.0
 30
0.0
  9
$EXTMIN
 10
-25.4950767424
 20
-25.5
 30
0.0
  9
$EXTMAX
 10
25.4950767424
 20
25.4659179968
 30
0.0
  9
$LIMMIN
 10
0.0
 20
0.0
  9
$LIMMAX
 10
420.0
 20
297.0
  9
$ORTHOMODE
 70
     0
  9
$REGENMODE
 70
     1
  9
$FILLMODE
 70
     1
  9
$QTEXTMODE
 70
     0
  9
$MIRRTEXT
 70
     1
  9
$LTSCALE
 40
1.0
  9
$ATTMODE
 70
     1
  9
$TEXTSIZE
 40
6.35
  9
$TRACEWID
 40
1.0
  9
$TEXTSTYLE
  7
Standard
  9
$CLAYER
  8
0
  9
$CELTYPE
  6
ByLayer
  9
$CECOLOR
 62
   256
  9
$CELTSCALE
 40
1.0
  9
$DISPSILH
 70
     0
  9
$DIMSCALE
 40
1.0
  9
$DIMASZ
 40
6.0
  9
$DIMEXO
 40
1.0
  9
$DIMDLI
 40
3.75
  9
$DIMRND
 40
0.0
  9
$DIMDLE
 40
0.0
  9
$DIMEXE
 40
1.0
  9
$DIMTP
 40
0.0
  9
$DIMTM
 40
0.0
  9
$DIMTXT
 40
6.35
  9
$DIMCEN
 40
2.5
  9
$DIMTSZ
 40
0.0
  9
$DIMTOL
 70
     0
  9
$DIMLIM
 70
     0
  9
$DIMTIH
 70
     1
  9
$DIMTOH
 70
     1
  9
$DIMSE1
 70
     0
  9
$DIMSE2
 70
     0
  9
$DIMTAD
 70
     1
  9
$DIMZIN
 70
     0
  9
$DIMBLK
  1

  9
$DIMASO
 70
     1
  9
$DIMSHO
 70
     1
  9
$DIMPOST
  1

  9
$DIMAPOST
  1

  9
$DIMALT
 70
     0
  9
$DIMALTD
 70
     3
  9
$DIMALTF
 40
0.0393700787
  9
$DIMLFAC
 40
1.0
  9
$DIMTOFL
 70
     1
  9
$DIMTVP
 40
0.0
  9
$DIMTIX
 70
     0
  9
$DIMSOXD
 70
     0
  9
$DIMSAH
 70
     0
  9
$DIMBLK1
  1

  9
$DIMBLK2
  1

  9
$DIMSTYLE
  2
ISO-25
  9
$DIMCLRD
 70
     0
  9
$DIMCLRE
 70
     0
  9
$DIMCLRT
 70
     0
  9
$DIMTFAC
 40
1.0
  9
$DIMGAP
 40
1.524
  9
$DIMJUST
 70
     0
  9
$DIMSD1
 70
     0
  9
$DIMSD2
 70
     0
  9
$DIMTOLJ
 70
     0
  9
$DIMTZIN
 70
     0
  9
$DIMALTZ
 70
     0
  9
$DIMALTTZ
 70
     0
  9
$DIMUPT
 70
     0
  9
$DIMDEC
 70
     3
  9
$DIMTDEC
 70
     2
  9
$DIMALTU
 70
     2
  9
$DIMALTTD
 70
     3
  9
$DIMTXSTY
  7
Standard
  9
$DIMAUNIT
 70
     0
  9
$DIMADEC
 70
     3
  9
$DIMALTRND
 40
0.0
  9
$DIMAZIN
 70
     0
  9
$DIMDSEP
 70
    44
  9
$DIMATFIT
 70
     3
  9
$DIMFRAC
 70
     0
  9
$DIMLDRBLK
  1

  9
$DIMLUNIT
 70
     2
  9
$DIMLWD
 70
    -2
  9
$DIMLWE
 70
    -2
  9
$DIMTMOVE
 70
     0
  9
$LUNITS
 70
     2
  9
$LUPREC
 70
     3
  9
$SKETCHINC
 40
1.0
  9
$FILLETRAD
 40
10.0
  9
$AUNITS
 70
     0
  9
$AUPREC
 70
     3
  9
$MENU
  1
.
  9
$ELEVATION
 40
0.0
  9
$PELEVATION
 40
0.0
  9
$THICKNESS
 40
0.0
  9
$LIMCHECK
 70
     0
  9
$CHAMFERA
 40
10.0
  9
$CHAMFERB
 40
10.0
  9
$CHAMFERC
 40
20.0
  9
$CHAMFERD
 40
0.0
  9
$SKPOLY
 70
     0
  9
$TDCREATE
 40
2455743.693180996
  9
$TDUCREATE
 40
2455743.568180996
  9
$TDUPDATE
 40
2455743.693181007
  9
$TDUUPDATE
 40
2455743.568181007
  9
$TDINDWG
 40
0.0000000116
  9
$TDUSRTIMER
 40
0.0000000116
  9
$USRTIMER
 70
     1
  9
$ANGBASE
 50
0.0
  9
$ANGDIR
 70
     0
  9
$PDMODE
 70
     0
  9
$PDSIZE
 40
-1.0
  9
$PLINEWID
 40
0.0
  9
$SPLFRAME
 70
     0
  9
$SPLINETYPE
 70
     6
  9
$SPLINESEGS
 70
     8
  9
$HANDSEED
  5
139
  9
$SURFTAB1
 70
     6
  9
$SURFTAB2
 70
     6
  9
$SURFTYPE
 70
     6
  9
$SURFU
 70
     6
  9
$SURFV
 70
     6
  9
$UCSBASE
  2

  9
$UCSNAME
  2

  9
$UCSORG
 10
0.0
 20
0.0
 30
0.0
  9
$UCSXDIR
 10
1.0
 20
0.0
 30
0.0
  9
$UCSYDIR
 10
0.0
 20
1.0
 30
0.0
  9
$UCSORTHOREF
  2

  9
$UCSORTHOVIEW
 70
     0
  9
$UCSORGTOP
 10
0.0
 20
0.0
 30
0.0
  9
$UCSORGBOTTOM
 10
0.0
 20
0.0
 30
0.0
  9
$UCSORGLEFT
 10
0.0
 20
0.0
 30
0.0
  9
$UCSORGRIGHT
 10
0.0
 20
0.0
 30
0.0
  9
$UCSORGFRONT
 10
0.0
 20
0.0
 30
0.0
  9
$UCSORGBACK
 10
0.0
 20
0.0
 30
0.0
  9
$PUCSBASE
  2

  9
$PUCSNAME
  2

  9
$PUCSORG
 10
0.0
 20
0.0
 30
0.0
  9
$PUCSXDIR
 10
1.0
 20
0.0
 30
0.0
  9
$PUCSYDIR
 10
0.0
 20
1.0
 30
0.0
  9
$PUCSORTHOREF
  2

  9
$PUCSORTHOVIEW
 70
     0
  9
$PUCSORGTOP
 10
0.0
 20
0.0
 30
0.0
  9
$PUCSORGBOTTOM
 10
0.0
 20
0.0
 30
0.0
  9
$PUCSORGLEFT
 10
0.0
 20
0.0
 30
0.0
  9
$PUCSORGRIGHT
 10
0.0
 20
0.0
 30
0.0
  9
$PUCSORGFRONT
 10
0.0
 20
0.0
 30
0.0
  9
$PUCSORGBACK
 10
0.0
 20
0.0
 30
0.0
  9
$USERI1
 70
     0
  9
$USERI2
 70
     0
  9
$USERI3
 70
     0
  9
$USERI4
 70
     0
  9
$USERI5
 70
     0
  9
$USERR1
 40
0.0
  9
$USERR2
 40
0.0
  9
$USERR3
 40
0.0
  9
$USERR4
 40
0.0
  9
$USERR5
 40
0.0
  9
$WORLDVIEW
 70
     1
  9
$SHADEDGE
 70
     3
  9
$SHADEDIF
 70
    70
  9
$TILEMODE
 70
     1
  9
$MAXACTVP
 70
    64
  9
$PINSBASE
 10
0.0
 20
0.0
 30
0.0
  9
$PLIMCHECK
 70
     0
  9
$PEXTMIN
 10
1.0000000000E+20
 20
1.0000000000E+20
 30
1.0000000000E+20
  9
$PEXTMAX
 10
-1.0000000000E+20
 20
-1.0000000000E+20
 30
-1.0000000000E+20
  9
$PLIMMIN
 10
0.0
 20
0.0
  9
$PLIMMAX
 10
420.0
 20
297.0
  9
$UNITMODE
 70
     0
  9
$VISRETAIN
 70
     1
  9
$PLINEGEN
 70
     0
  9
$PSLTSCALE
 70
     1
  9
$TREEDEPTH
 70
  3020
  9
$CMLSTYLE
  2
Standard
  9
$CMLJUST
 70
     0
  9
$CMLSCALE
 40
20.0
  9
$PROXYGRAPHICS
 70
     1
  9
$MEASUREMENT
 70
     1
  9
$CELWEIGHT
370
    -1
  9
$ENDCAPS
280
     0
  9
$JOINSTYLE
280
     0
  9
$LWDISPLAY
290
     1
  9
$INSUNITS
 70
     4
  9
$HYPERLINKBASE
  1

  9
$STYLESHEET
  1

  9
$XEDIT
290
     1
  9
$CEPSNTYPE
380
     0
  9
$PSTYLEMODE
290
     1
  9
$FINGERPRINTGUID
  2
{CBDBDF0C-293A-426B-9765-97210A63C020}
  9
$VERSIONGUID
  2
{FAEB1C32-E019-11D5-929B-00C0DF256EC4}
  9
$EXTNAMES
290
     1
  9
$PSVPSCALE
 40
0.0
  9
$OLESTARTUP
290
     0
  0
ENDSEC
  0
SECTION
  2
CLASSES
  0
CLASS
  1
ACDBDICTIONARYWDFLT
  2
AcDbDictionaryWithDefault
  3
ObjectDBX Classes
 90
        0
280
     0
281
     0
  0
CLASS
  1
VISUALSTYLE
  2
AcDbVisualStyle
  3
ObjectDBX Classes
 90
     4095
280
     0
281
     0
  0
CLASS
  1
DICTIONARYVAR
  2
AcDbDictionaryVar
  3
ObjectDBX Classes
 90
        0
280
     0
281
     0
  0
CLASS
  1
ACDBPLACEHOLDER
  2
AcDbPlaceHolder
  3
ObjectDBX Classes
 90
        0
280
     0
281
     0
  0
CLASS
  1
LAYOUT
  2
AcDbLayout
  3
ObjectDBX Classes
 90
        0
280
     0
281
     0
  0
ENDSEC
  0
SECTION
  2
TABLES
  0
TABLE
  2
VPORT
  5
8
330
0
100
AcDbSymbolTable
 70
     1
  0
VPORT
  5
29
330
8
100
AcDbSymbolTableRecord
100
AcDbViewportTableRecord
  2
*Active
 70
     0
 10
0.0
 20
0.0
 11
1.0
 21
1.0
 12
0.0
 22
-0.0170410016
 13
0.0
 23
0.0
 14
10.0
 24
10.0
 15
10.0
 25
10.0
 16
0.0
 26
0.0
 36
1.0
 17
0.0
 27
0.0
 37
0.0
 40
51.9852363567
 41
1.0004755234
 42
50.0
 43
0.0
 44
0.0
 50
0.0
 51
0.0
 71
     0
 72
   100
 73
     1
 74
     3
 75
     0
 76
     0
 77
     0
 78
     0
281
     0
 65
     1
110
0.0
120
0.0
130
0.0
111
1.0
121
0.0
131
0.0
112
0.0
122
1.0
132
0.0
 79
     0
146
0.0
  0
ENDTAB
  0
TABLE
  2
LTYPE
  5
5
330
0
100
AcDbSymbolTable
 70
     6
  0
LTYPE
  5
14
330
5
100
AcDbSymbolTableRecord
100
AcDbLinetypeTableRecord
  2
ByBlock
 70
     0
  3

 72
    65
 73
     0
 40
0.0
  0
LTYPE
  5
15
330
5
100
AcDbSymbolTableRecord
100
AcDbLinetypeTableRecord
  2
ByLayer
 70
     0
  3

 72
    65
 73
     0
 40
0.0
  0
LTYPE
  5
16
330
5
100
AcDbSymbolTableRecord
100
AcDbLinetypeTableRecord
  2
Continuous
 70
     0
  3
Solid line
 72
    65
 73
     0
 40
0.0
  0
LTYPE
  5
3B
330
5
100
AcDbSymbolTableRecord
100
AcDbLinetypeTableRecord
  2
HIDDEN
 70
     0
  3
Hidden __ __ __ __ __ __ __ __ __ __ __ __ __ __
 72
    65
 73
     2
 40
1.905
 49
1.27
 74
     0
 49
-0.635
 74
     0
  0
LTYPE
  5
3C
330
5
100
AcDbSymbolTableRecord
100
AcDbLinetypeTableRecord
  2
PHANTOM
 70
     0
  3
Phantom ______  __  __  ______  __  __  ______
 72
    65
 73
     6
 40
12.7
 49
6.35
 74
     0
 49
-1.27
 74
     0
 49
1.27
 74
     0
 49
-1.27
 74
     0
 49
1.27
 74
     0
 49
-1.27
 74
     0
  0
LTYPE
  5
3D
330
5
100
AcDbSymbolTableRecord
100
AcDbLinetypeTableRecord
  2
CENTER
 70
     0
  3
Center ____ _ ____ _ ____ _ ____ _ ____ _ ____
 72
    65
 73
     4
 40
10.16
 49
6.35
 74
     0
 49
-1.27
 74
     0
 49
1.27
 74
     0
 49
-1.27
 74
     0
  0
LTYPE
  5
3E
330
5
100
AcDbSymbolTableRecord
100
AcDbLinetypeTableRecord
  2
CENTERX2
 70
     0
  3
Center (2x) ________  __  ________  __  _____
 72
    65
 73
     4
 40
20.32
 49
12.7
 74
     0
 49
-2.54
 74
     0
 49
2.54
 74
     0
 49
-2.54
 74
     0
  0
LTYPE
  5
3F
330
5
100
AcDbSymbolTableRecord
100
AcDbLinetypeTableRecord
  2
DOT2
 70
     0
  3
Dot (.5x) ........................................
 72
    65
 73
     2
 40
0.635
 49
0.0
 74
     0
 49
-0.635
 74
     0
  0
ENDTAB
  0
TABLE
  2
LAYER
  5
2
330
0
100
AcDbSymbolTable
 70
     1
  0
LAYER
  5
10
330
2
100
AcDbSymbolTableRecord
100
AcDbLayerTableRecord
  2
0
 70
     0
 62
     7
  6
Continuous
370
    -3
390
F
  0
ENDTAB
  0
TABLE
  2
STYLE
  5
3
330
0
100
AcDbSymbolTable
 70
     1
  0
STYLE
  5
11
330
3
100
AcDbSymbolTableRecord
100
AcDbTextStyleTableRecord
  2
Standard
 70
     0
 40
0.0
 41
1.0
 50
0.0
 71
     0
 42
2.5
  3
txt
  4

  0
ENDTAB
  0
TABLE
  2
VIEW
  5
6
330
0
100
AcDbSymbolTable
 70
     0
  0
ENDTAB
  0
TABLE
  2
UCS
  5
7
330
0
100
AcDbSymbolTable
 70
     0
  0
ENDTAB
  0
TABLE
  2
APPID
  5
9
330
0
100
AcDbSymbolTable
 70
     1
  0
APPID
  5
12
330
9
100
AcDbSymbolTableRecord
100
AcDbRegAppTableRecord
  2
ACAD
 70
     0
  0
ENDTAB
  0
TABLE
  2
DIMSTYLE
  5
A
330
0
100
AcDbSymbolTable
 70
     1
100
AcDbDimStyleTable
  0
DIMSTYLE
105
27
330
A
100
AcDbSymbolTableRecord
100
AcDbDimStyleTableRecord
  2
ISO-25
 70
     0
 41
2.5
 42
0.625
 43
3.75
 44
1.25
 73
     0
 74
     0
 77
     1
 78
     8
140
2.5
141
2.5
143
0.0393700787
147
0.625
171
     3
172
     1
271
     2
272
     2
274
     3
278
    44
283
     0
284
     8
340
11
  0
ENDTAB
  0
TABLE
  2
BLOCK_RECORD
  5
1
330
0
100
AcDbSymbolTable
 70
     1
  0
BLOCK_RECORD
  5
1F
330
1
100
AcDbSymbolTableRecord
100
AcDbBlockTableRecord
  2
*Model_Space
340
22
  0
BLOCK_RECORD
  5
1B
330
1
100
AcDbSymbolTableRecord
100
AcDbBlockTableRecord
  2
*Paper_Space
340
1E
  0
BLOCK_RECORD
  5
23
330
1
100
AcDbSymbolTableRecord
100
AcDbBlockTableRecord
  2
*Paper_Space0
340
26
  0
ENDTAB
  0
ENDSEC
  0
SECTION
  2
BLOCKS
  0
BLOCK
  5
20
330
1F
100
AcDbEntity
  8
0
100
AcDbBlockBegin
  2
*Model_Space
 70
     0
 10
0.0
 20
0.0
 30
0.0
  3
*Model_Space
  1

  0
ENDBLK
  5
21
330
1F
100
AcDbEntity
  8
0
100
AcDbBlockEnd
  0
BLOCK
  5
1C
330
1B
100
AcDbEntity
 67
     1
  8
0
100
AcDbBlockBegin
  2
*Paper_Space
 70
     0
 10
0.0
 20
0.0
 30
0.0
  3
*Paper_Space
  1

  0
ENDBLK
  5
1D
330
1B
100
AcDbEntity
 67
     1
  8
0
100
AcDbBlockEnd
  0
BLOCK
  5
24
330
23
100
AcDbEntity
  8
0
100
AcDbBlockBegin
  2
*Paper_Space0
 70
     0
 10
0.0
 20
0.0
 30
0.0
  3
*Paper_Space0
  1

  0
ENDBLK
  5
25
330
23
100
AcDbEntity
  8
0
100
AcDbBlockEnd
  0
ENDSEC
  0
SECTION
  2
ENTITIES
  0
LINE
  5
40
330
1F
100
AcDbEntity
  8
0
  6
Continuous
 62
     7
370
    15
100
AcDbLine
 10
0.4455933577
 20
-2.8521535535
 30
0.0
 11
-2.247240754
 21
-1.8119719443
 31
0.0
  0
LINE
  5
41
330
1F
100
AcDbEntity
  8
0
  6
Continuous
 62
     7
370
    15
100
AcDbLine
 10
-2.247240754
 20
-1.8119719443
 30
0.0
 11
-2.6928341117
 21
1.0401816092
 31
0.0
  0
LINE
  5
42
330
1F
100
AcDbEntity
  8
0
  6
Continuous
 62
     7
370
    15
100
AcDbLine
 10
-2.6928341117
 20
1.0401816092
 30
0.0
 11
-0.4455933577
 21
2.8521535535
 31
0.0
  0
LINE
  5
43
330
1F
100
AcDbEntity
  8
0
  6
Continuous
 62
     7
370
    15
100
AcDbLine
 10
-0.4455933577
 20
2.8521535535
 30
0.0
 11
2.247240754
 21
1.8119719443
 31
0.0
  0
LINE
  5
44
330
1F
100
AcDbEntity
  8
0
  6
Continuous
 62
     7
370
    15
100
AcDbLine
 10
2.247240754
 20
1.8119719443
 30
0.0
 11
2.6928341117
 21
-1.0401816092
 31
0.0
  0
LINE
  5
45
330
1F
100
AcDbEntity
  8
0
  6
Continuous
 62
     7
370
    15
100
AcDbLine
 10
2.6928341117
 20
-1.0401816092
 30
0.0
 11
0.4455933577
 21
-2.8521535535
 31
0.0
  0
SPLINE
  5
46
330
1F
100
AcDbEntity
  8
0
  6
Continuous
 62
     7
370
    15
100
AcDbSpline
210
0.0
220
0.0
230
1.0
 70
     8
 71
     3
 72
    18
 73
    14
 74
     0
 42
0.00000001
 43
0.00000001
 40
0.0
 40
0.0
 40
0.0
 40
0.0
 40
0.03125
 40
0.0625
 40
0.125
 40
0.1875
 40
0.25
 40
0.375
 40
0.5
 40
0.625
 40
0.75
 40
0.875
 40
0.9234078973473425
 40
0.9234078973473425
 40
0.9234078973473425
 40
0.9234078973473425
 10
1.130219504960048
 20
19.26279319075161
 30
0.0
 10
1.031352102774849
 20
19.13323974289393
 30
0.0
 10
0.8369359224503797
 20
18.8547509660202
 30
0.0
 10
0.5546707964049903
 20
18.35561150684526
 30
0.0
 10
0.3311670062377092
 20
17.77200213600839
 30
0.0
 10
0.2224565942575014
 20
17.11132424228971
 30
0.0
 10
0.2422576298707021
 20
16.20253874504062
 30
0.0
 10
0.5664458788873574
 20
14.92940143134493
 30
0.0
 10
1.316330920623211
 20
13.17979339718277
 30
0.0
 10
2.16515307704045
 20
11.23297405930152
 30
0.0
 10
2.798786202399232
 20
9.017480108963326
 30
0.0
 10
2.775194024199803
 20
6.986730822127718
 30
0.0
 10
2.406862413741995
 20
5.768192096037935
 30
0.0
 10
2.27599362815157
 20
5.42896807999785
 30
0.0
  0
LINE
  5
47
330
1F
100
AcDbEntity
  8
0
  6
Continuous
 62
     7
370
    15
100
AcDbLine
 10
1.130219505
 20
19.2627931908
 30
0.0
 11
1.9118335842
 21
20.1585439292
 31
0.0
  0
ARC
  5
48
330
1F
100
AcDbEntity
  8
0
  6
Continuous
 62
     7
370
    15
100
AcDbCircle
 10
0.0
 20
0.0
 30
0.0
 40
20.24900000000001
100
AcDbArc
 50
50.1993892054
 51
84.5822806357
  0
SPLINE
  5
49
330
1F
100
AcDbEntity
  8
0
  6
Continuous
 62
     7
370
    15
100
AcDbSpline
210
0.0
220
0.0
230
1.0
 70
     8
 71
     3
 72
    20
 73
    16
 74
     0
 42
0.00000001
 43
0.00000001
 40
0.0585654109753476
 40
0.0585654109753476
 40
0.0585654109753476
 40
0.0585654109753476
 40
0.0596771681784606
 40
0.0674896681784606
 40
0.125
 40
0.25
 40
0.375
 40
0.5
 40
0.625
 40
0.75
 40
0.8125
 40
0.875
 40
0.9375
 40
0.96875
 40
0.9951864371921396
 40
0.9951864371921396
 40
0.9951864371921396
 40
0.9951864371921396
 10
12.96174714732953
 20
15.55683489302033
 30
0.0
 10
12.95369882897709
 20
15.55446176199626
 30
0.0
 10
12.88917695822535
 20
15.53531482286885
 30
0.0
 10
12.41388167341135
 20
15.38696635612316
 30
0.0
 10
11.14324959641961
 20
14.83968395403294
 30
0.0
 10
9.593691856505616
 20
13.47439987221073
 30
0.0
 10
8.43814574494567
 20
11.52193225688715
 30
0.0
 10
7.629585888059705
 20
9.57199617246912
 30
0.0
 10
6.888499371744572
 20
7.787392992936759
 30
0.0
 10
6.18055907406104
 20
6.598959148009982
 30
0.0
 10
5.507280937044676
 20
5.875232988946823
 30
0.0
 10
4.924100420886786
 20
5.432965483800127
 30
0.0
 10
4.324197893886794
 20
5.137304845434449
 30
0.0
 10
3.775207240706569
 20
4.958270807874335
 30
0.0
 10
3.465143004118636
 20
4.885907521388517
 30
0.0
 10
3.324401436483401
 20
4.858209186328769
 30
0.0
  0
ARC
  5
4A
330
1F
100
AcDbEntity
  8
0
  6
Continuous
 62
     7
370
    15
100
AcDbCircle
 10
0.0
 20
0.0
 30
0.0
 40
5.886751345948129
100
AcDbArc
 50
55.616734803
 51
67.25504103
  0
SPLINE
  5
4B
330
1F
100
AcDbEntity
  8
0
  6
Continuous
 62
     7
370
    15
100
AcDbSpline
210
0.0
220
0.0
230
1.0
 70
     8
 71
     3
 72
    18
 73
    14
 74
     0
 42
0.00000001
 43
0.00000001
 40
0.0
 40
0.0
 40
0.0
 40
0.0
 40
0.03125
 40
0.0625
 40
0.125
 40
0.1875
 40
0.25
 40
0.375
 40
0.5
 40
0.625
 40
0.75
 40
0.875
 40
0.9234078973473422
 40
0.9234078973473422
 40
0.9234078973473422
 40
0.9234078973473422
 10
19.26279319075161
 20
-1.130219504960043
 30
0.0
 10
19.13323974289394
 20
-1.031352102774845
 30
0.0
 10
18.85475096602021
 20
-0.8369359224503751
 30
0.0
 10
18.35561150684527
 20
-0.5546707964049848
 30
0.0
 10
17.77200213600839
 20
-0.3311670062377032
 30
0.0
 10
17.11132424228972
 20
-0.2224565942574947
 30
0.0
 10
16.20253874504063
 20
-0.2422576298706944
 30
0.0
 10
14.92940143134494
 20
-0.5664458788873482
 30
0.0
 10
13.17979339718277
 20
-1.3163309206232
 30
0.0
 10
11.23297405930152
 20
-2.165153077040437
 30
0.0
 10
9.017480108963328
 20
-2.798786202399217
 30
0.0
 10
6.986730822127721
 20
-2.775194024199786
 30
0.0
 10
5.768192096037942
 20
-2.406862413741977
 30
0.0
 10
5.428968079997859
 20
-2.275993628151553
 30
0.0
  0
LINE
  5
4C
330
1F
100
AcDbEntity
  8
0
  6
Continuous
 62
     7
370
    15
100
AcDbLine
 10
19.2627931908
 20
-1.130219505
 30
0.0
 11
20.1585439292
 21
-1.9118335842
 31
0.0
  0
ARC
  5
4D
330
1F
100
AcDbEntity
  8
0
  6
Continuous
 62
     7
370
    15
100
AcDbCircle
 10
0.0
 20
0.0
 30
0.0
 40
20.24900000000001
100
AcDbArc
 50
320.1993892054
 51
354.5822806357
  0
SPLINE
  5
4E
330
1F
100
AcDbEntity
  8
0
  6
Continuous
 62
     7
370
    15
100
AcDbSpline
210
0.0
220
0.0
230
1.0
 70
     8
 71
     3
 72
    20
 73
    16
 74
     0
 42
0.00000001
 43
0.00000001
 40
0.0585654109753476
 40
0.0585654109753476
 40
0.0585654109753476
 40
0.0585654109753476
 40
0.0596771681784606
 40
0.0674896681784606
 40
0.125
 40
0.25
 40
0.375
 40
0.5
 40
0.625
 40
0.75
 40
0.8125
 40
0.875
 40
0.9375
 40
0.96875
 40
0.9951864371921396
 40
0.9951864371921396
 40
0.9951864371921396
 40
0.9951864371921396
 10
15.55683489302031
 20
-12.96174714732956
 30
0.0
 10
15.55446176199623
 20
-12.95369882897712
 30
0.0
 10
15.53531482286883
 20
-12.88917695822537
 30
0.0
 10
15.38696635612314
 20
-12.41388167341137
 30
0.0
 10
14.83968395403293
 20
-11.14324959641963
 30
0.0
 10
13.47439987221071
 20
-9.59369185650564
 30
0.0
 10
11.52193225688714
 20
-8.438145744945686
 30
0.0
 10
9.571996172469113
 20
-7.629585888059713
 30
0.0
 10
7.787392992936751
 20
-6.888499371744575
 30
0.0
 10
6.598959148009976
 20
-6.180559074061041
 30
0.0
 10
5.875232988946819
 20
-5.507280937044676
 30
0.0
 10
5.432965483800125
 20
-4.924100420886785
 30
0.0
 10
5.137304845434448
 20
-4.324197893886792
 30
0.0
 10
4.958270807874335
 20
-3.775207240706567
 30
0.0
 10
4.885907521388519
 20
-3.465143004118634
 30
0.0
 10
4.858209186328772
 20
-3.3244014364834
 30
0.0
  0
ARC
  5
4F
330
1F
100
AcDbEntity
  8
0
  6
Continuous
 62
     7
370
    15
100
AcDbCircle
 10
0.0
 20
0.0
 30
0.0
 40
5.886751345948129
100
AcDbArc
 50
325.616734803
 51
337.25504103
  0
SPLINE
  5
50
330
1F
100
AcDbEntity
  8
0
  6
Continuous
 62
     7
370
    15
100
AcDbSpline
210
0.0
220
0.0
230
1.0
 70
     8
 71
     3
 72
    18
 73
    14
 74
     0
 42
0.00000001
 43
0.00000001
 40
0.0
 40
0.0
 40
0.0
 40
0.0
 40
0.03125
 40
0.0625
 40
0.125
 40
0.1875
 40
0.25
 40
0.375
 40
0.5
 40
0.625
 40
0.75
 40
0.875
 40
0.9190257216055171
 40
0.9190257216055171
 40
0.9190257216055171
 40
0.9190257216055171
 10
-1.130219504960039
 20
-19.26279319075161
 30
0.0
 10
-1.029270195130167
 20
-19.1348553311809
 30
0.0
 10
-0.8303763675051453
 20
-18.85954660384148
 30
0.0
 10
-0.5400772360238411
 20
-18.36503652775802
 30
0.0
 10
-0.3071659096152938
 20
-17.78511743341954
 30
0.0
 10
-0.1877867829439861
 20
-17.12628372371986
 30
0.0
 10
-0.1928904906885774
 20
-16.21729686287483
 30
0.0
 10
-0.4964501774533986
 20
-14.93908398666994
 30
0.0
 10
-1.217946639963783
 20
-13.1775793163358
 30
0.0
 10
-2.035178445559848
 20
-11.21728934709773
 30
0.0
 10
-2.632904980139941
 20
-8.99183942148809
 30
0.0
 10
-2.577308011002291
 20
-6.991549538305817
 30
0.0
 10
-2.207875320582298
 20
-5.810570692719562
 30
0.0
 10
-2.088493081733239
 20
-5.50382031470637
 30
0.0
  0
LINE
  5
51
330
1F
100
AcDbEntity
  8
0
  6
Continuous
 62
     7
370
    15
100
AcDbLine
 10
-1.130219505
 20
-19.2627931908
 30
0.0
 11
-1.9118335842
 21
-20.1585439292
 31
0.0
  0
ARC
  5
52
330
1F
100
AcDbEntity
  8
0
  6
Continuous
 62
     7
370
    15
100
AcDbCircle
 10
0.0
 20
0.0
 30
0.0
 40
20.24900000000001
100
AcDbArc
 50
232.1634611905
 51
264.5822806357
  0
SPLINE
  5
53
330
1F
100
AcDbEntity
  8
0
  6
Continuous
 62
     7
370
    15
100
AcDbSpline
210
0.0
220
0.0
230
1.0
 70
     8
 71
     3
 72
    19
 73
    15
 74
     0
 42
0.00000001
 43
0.00000001
 40
0.0598223357453402
 40
0.0598223357453402
 40
0.0598223357453402
 40
0.0598223357453402
 40
0.0674896681784606
 40
0.125
 40
0.25
 40
0.375
 40
0.5
 40
0.625
 40
0.75
 40
0.8125
 40
0.875
 40
0.9375
 40
0.96875
 40
0.9953947233875075
 40
0.9953947233875075
 40
0.9953947233875075
 40
0.9953947233875075
 10
-12.42095586916284
 20
-15.99193097459807
 30
0.0
 10
-12.36645128882058
 20
-15.97279402832754
 30
0.0
 10
-11.90757312540574
 20
-15.80541997798983
 30
0.0
 10
-10.66499907480445
 20
-15.19951988295855
 30
0.0
 10
-9.181282022957845
 20
-13.76295678881193
 30
0.0
 10
-8.11872294502813
 20
-11.75836585529512
 30
0.0
 10
-7.402648207246998
 20
-9.7726023383086
 30
0.0
 10
-6.746206296000324
 20
-7.955158597715804
 30
0.0
 10
-6.094870679204014
 20
-6.734783088643183
 30
0.0
 10
-5.456330657912993
 20
-5.980230476623185
 30
0.0
 10
-4.894568098185089
 20
-5.511057920922387
 30
0.0
 10
-4.309215550046142
 20
-5.187544939162738
 30
0.0
 10
-3.768304689853307
 20
-4.982566646390415
 30
0.0
 10
-3.460704878136759
 20
-4.895446470350938
 30
0.0
 10
-3.320340410513059
 20
-4.860985596289717
 30
0.0
  0
ARC
  5
54
330
1F
100
AcDbEntity
  8
0
  6
Continuous
 62
     7
370
    15
100
AcDbCircle
 10
0.0
 20
0.0
 30
0.0
 40
5.886751345948129
100
AcDbArc
 50
235.6646152376
 51
249.2201274244
  0
ARC
  5
55
330
1F
100
AcDbEntity
  8
0
  6
Continuous
 62
     7
370
    15
100
AcDbCircle
 10
12.4972761893
 20
19.3352573423
 30
0.0
 40
9.799999999999997
100
AcDbArc
 50
144.0523524739
 51
158.0533518242
  0
ARC
  5
56
330
1F
100
AcDbEntity
  8
0
  6
Continuous
 62
     7
370
    15
100
AcDbCircle
 10
0.0
 20
0.0
 30
0.0
 40
23.24899999999999
100
AcDbArc
 50
81.5721587816
 51
83.7339636674
  0
ARC
  5
57
330
1F
100
AcDbEntity
  8
0
  6
Continuous
 62
     7
370
    15
100
AcDbCircle
 10
-7.184074404
 20
21.8728864945
 30
0.0
 40
9.8
100
AcDbArc
 50
7.2527706248
 51
21.2537699751
  0
ARC
  5
58
330
1F
100
AcDbEntity
  8
0
  6
Continuous
 62
     7
370
    15
100
AcDbCircle
 10
0.0
 20
0.0
 30
0.0
 40
25.5
100
AcDbArc
 50
85.6156984807
 51
87.0373627438
  0
ARC
  5
59
330
1F
100
AcDbEntity
  8
0
  6
Continuous
 62
     7
370
    15
100
AcDbCircle
 10
9.9221358952
 20
20.7746313547
 30
0.0
 40
9.799999999999999
100
AcDbArc
 50
151.3992912494
 51
165.4002905997
  0
ARC
  5
5A
330
1F
100
AcDbEntity
  8
0
  6
Continuous
 62
     7
370
    15
100
AcDbCircle
 10
0.0
 20
0.0
 30
0.0
 40
23.249
100
AcDbArc
 50
88.9190975571
 51
91.0809024429
  0
ARC
  5
5B
330
1F
100
AcDbEntity
  8
0
  6
Continuous
 62
     7
370
    15
100
AcDbCircle
 10
-9.9221358952
 20
20.7746313547
 30
0.0
 40
9.800000000000002
100
AcDbArc
 50
14.5997094003
 51
28.6007087506
  0
ARC
  5
5C
330
1F
100
AcDbEntity
  8
0
  6
Continuous
 62
     7
370
    15
100
AcDbCircle
 10
0.0
 20
0.0
 30
0.0
 40
25.5
100
AcDbArc
 50
92.9626372562
 51
94.3843015193
  0
ARC
  5
5D
330
1F
100
AcDbEntity
  8
0
  6
Continuous
 62
     7
370
    15
100
AcDbCircle
 10
7.184074404
 20
21.8728864945
 30
0.0
 40
9.799999999999997
100
AcDbArc
 50
158.7462300249
 51
172.7472293752
  0
ARC
  5
5E
330
1F
100
AcDbEntity
  8
0
  6
Continuous
 62
     7
370
    15
100
AcDbCircle
 10
0.0
 20
0.0
 30
0.0
 40
23.249
100
AcDbArc
 50
96.2660363326
 51
98.4278412184
  0
ARC
  5
5F
330
1F
100
AcDbEntity
  8
0
  6
Continuous
 62
     7
370
    15
100
AcDbCircle
 10
-12.4972761893
 20
19.3352573423
 30
0.0
 40
9.800000000000002
100
AcDbArc
 50
21.9466481758
 51
35.9476475261
  0
ARC
  5
60
330
1F
100
AcDbEntity
  8
0
  6
Continuous
 62
     7
370
    15
100
AcDbCircle
 10
0.0
 20
0.0
 30
0.0
 40
25.5
100
AcDbArc
 50
100.3095760317
 51
101.7312402948
  0
ARC
  5
61
330
1F
100
AcDbEntity
  8
0
  6
Continuous
 62
     7
370
    15
100
AcDbCircle
 10
4.3280506097
 20
22.6119894429
 30
0.0
 40
9.8
100
AcDbArc
 50
166.0931688004
 51
180.0941681507
  0
ARC
  5
62
330
1F
100
AcDbEntity
  8
0
  6
Continuous
 62
     7
370
    15
100
AcDbCircle
 10
0.0
 20
0.0
 30
0.0
 40
23.249
100
AcDbArc
 50
103.6129751081
 51
105.7747799939
  0
ARC
  5
63
330
1F
100
AcDbEntity
  8
0
  6
Continuous
 62
     7
370
    15
100
AcDbCircle
 10
-14.8672115539
 20
17.5783989389
 30
0.0
 40
9.800000000000002
100
AcDbArc
 50
29.2935869513
 51
43.2945863016
  0
ARC
  5
64
330
1F
100
AcDbEntity
  8
0
  6
Continuous
 62
     7
370
    15
100
AcDbCircle
 10
0.0
 20
0.0
 30
0.0
 40
25.5
100
AcDbArc
 50
107.6565148073
 51
109.0781790703
  0
ARC
  5
65
330
1F
100
AcDbEntity
  8
0
  6
Continuous
 62
     7
370
    15
100
AcDbCircle
 10
1.400960344
 20
22.9798041497
 30
0.0
 40
9.799999999999999
100
AcDbArc
 50
173.4401075759
 51
187.4411069262
  0
ARC
  5
66
330
1F
100
AcDbEntity
  8
0
  6
Continuous
 62
     7
370
    15
100
AcDbCircle
 10
0.0
 20
0.0
 30
0.0
 40
23.249
100
AcDbArc
 50
110.9599138836
 51
113.1217187694
  0
ARC
  5
67
330
1F
100
AcDbEntity
  8
0
  6
Continuous
 62
     7
370
    15
100
AcDbCircle
 10
-16.9930277159
 20
15.5329037109
 30
0.0
 40
9.800000000000002
100
AcDbArc
 50
36.6405257268
 51
50.6415250771
  0
ARC
  5
68
330
1F
100
AcDbEntity
  8
0
  6
Continuous
 62
     7
370
    15
100
AcDbCircle
 10
0.0
 20
0.0
 30
0.0
 40
25.5
100
AcDbArc
 50
115.0034535828
 51
116.4251178458
  0
ARC
  5
69
330
1F
100
AcDbEntity
  8
0
  6
Continuous
 62
     7
370
    15
100
AcDbCircle
 10
-1.5491336518
 20
22.9702911077
 30
0.0
 40
9.8
100
AcDbArc
 50
180.7870463515
 51
194.7880457018
  0
ARC
  5
6A
330
1F
100
AcDbEntity
  8
0
  6
Continuous
 62
     7
370
    15
100
AcDbCircle
 10
0.0
 20
0.0
 30
0.0
 40
23.249
100
AcDbArc
 50
118.3068526591
 51
120.4686575449
  0
ARC
  5
6B
330
1F
100
AcDbEntity
  8
0
  6
Continuous
 62
     7
370
    15
100
AcDbCircle
 10
-18.8398188325
 20
13.2323586334
 30
0.0
 40
9.800000000000006
100
AcDbArc
 50
43.9874645023
 51
57.9884638526
  0
ARC
  5
6C
330
1F
100
AcDbEntity
  8
0
  6
Continuous
 62
     7
370
    15
100
AcDbCircle
 10
0.0
 20
0.0
 30
0.0
 40
25.5
100
AcDbArc
 50
122.3503923583
 51
123.7720566213
  0
ARC
  5
6D
330
1F
100
AcDbEntity
  8
0
  6
Continuous
 62
     7
370
    15
100
AcDbCircle
 10
-4.4737909159
 20
22.5836065208
 30
0.0
 40
9.799999999999997
100
AcDbArc
 50
188.133985127
 51
202.1349844773
  0
ARC
  5
6E
330
1F
100
AcDbEntity
  8
0
  6
Continuous
 62
     7
370
    15
100
AcDbCircle
 10
0.0
 20
0.0
 30
0.0
 40
23.249
100
AcDbArc
 50
125.6537914346
 51
127.8155963205
  0
ARC
  5
6F
330
1F
100
AcDbEntity
  8
0
  6
Continuous
 62
     7
370
    15
100
AcDbCircle
 10
-20.3772606447
 20
10.714538593
 30
0.0
 40
9.800000000000002
100
AcDbArc
 50
51.3344032778
 51
65.3354026281
  0
ARC
  5
70
330
1F
100
AcDbEntity
  8
0
  6
Continuous
 62
     7
370
    15
100
AcDbCircle
 10
0.0
 20
0.0
 30
0.0
 40
25.5
100
AcDbArc
 50
129.6973311338
 51
131.1189953968
  0
ARC
  5
71
330
1F
100
AcDbEntity
  8
0
  6
Continuous
 62
     7
370
    15
100
AcDbCircle
 10
-7.3249886568
 20
21.8260997392
 30
0.0
 40
9.799999999999995
100
AcDbArc
 50
195.4809239025
 51
209.4819232528
  0
ARC
  5
72
330
1F
100
AcDbEntity
  8
0
  6
Continuous
 62
     7
370
    15
100
AcDbCircle
 10
0.0
 20
0.0
 30
0.0
 40
23.24899999999999
100
AcDbArc
 50
133.0007302102
 51
135.162535096
  0
ARC
  5
73
330
1F
100
AcDbEntity
  8
0
  6
Continuous
 62
     7
370
    15
100
AcDbCircle
 10
-21.5801084006
 20
8.0207861251
 30
0.0
 40
9.8
100
AcDbArc
 50
58.6813420534
 51
72.6823414036
  0
ARC
  5
74
330
1F
100
AcDbEntity
  8
0
  6
Continuous
 62
     7
370
    15
100
AcDbCircle
 10
0.0
 20
0.0
 30
0.0
 40
25.5
100
AcDbArc
 50
137.0442699093
 51
138.4659341723
  0
ARC
  5
75
330
1F
100
AcDbEntity
  8
0
  6
Continuous
 62
     7
370
    15
100
AcDbCircle
 10
-10.0559102864
 20
20.7102090032
 30
0.0
 40
9.799999999999997
100
AcDbArc
 50
202.827862678
 51
216.8288620283
  0
ARC
  5
76
330
1F
100
AcDbEntity
  8
0
  6
Continuous
 62
     7
370
    15
100
AcDbCircle
 10
0.0
 20
0.0
 30
0.0
 40
23.249
100
AcDbArc
 50
140.3476689857
 51
142.5094738715
  0
ARC
  5
77
330
1F
100
AcDbEntity
  8
0
  6
Continuous
 62
     7
370
    15
100
AcDbCircle
 10
-22.4286113731
 20
5.1953325708
 30
0.0
 40
9.800000000000002
100
AcDbArc
 50
66.0282808289
 51
80.0292801792
  0
ARC
  5
78
330
1F
100
AcDbEntity
  8
0
  6
Continuous
 62
     7
370
    15
100
AcDbCircle
 10
0.0
 20
0.0
 30
0.0
 40
25.5
100
AcDbArc
 50
144.3912086848
 51
145.8128729478
  0
ARC
  5
79
330
1F
100
AcDbEntity
  8
0
  6
Continuous
 62
     7
370
    15
100
AcDbCircle
 10
-12.6217141472
 20
19.254257208
 30
0.0
 40
9.799999999999999
100
AcDbArc
 50
210.1748014535
 51
224.1758008038
  0
ARC
  5
7A
330
1F
100
AcDbEntity
  8
0
  6
Continuous
 62
     7
370
    15
100
AcDbCircle
 10
0.0
 20
0.0
 30
0.0
 40
23.249
100
AcDbArc
 50
147.6946077612
 51
149.856412647
  0
ARC
  5
7B
330
1F
100
AcDbEntity
  8
0
  6
Continuous
 62
     7
370
    15
100
AcDbCircle
 10
-22.9088371669
 20
2.2845717993
 30
0.0
 40
9.8
100
AcDbArc
 50
73.3752196044
 51
87.3762189547
  0
ARC
  5
7C
330
1F
100
AcDbEntity
  8
0
  6
Continuous
 62
     7
370
    15
100
AcDbCircle
 10
0.0
 20
0.0
 30
0.0
 40
25.5
100
AcDbArc
 50
151.7381474603
 51
153.1598117234
  0
ARC
  5
7D
330
1F
100
AcDbEntity
  8
0
  6
Continuous
 62
     7
370
    15
100
AcDbCircle
 10
-14.9802698106
 20
17.4821510417
 30
0.0
 40
9.8
100
AcDbArc
 50
217.521740229
 51
231.5227395793
  0
ARC
  5
7E
330
1F
100
AcDbEntity
  8
0
  6
Continuous
 62
     7
370
    15
100
AcDbCircle
 10
0.0
 20
0.0
 30
0.0
 40
23.249
100
AcDbArc
 50
155.0415465367
 51
157.2033514225
  0
ARC
  5
7F
330
1F
100
AcDbEntity
  8
0
  6
Continuous
 62
     7
370
    15
100
AcDbCircle
 10
-23.0129004878
 20
-0.663701578
 30
0.0
 40
9.799999999999999
100
AcDbArc
 50
80.7221583799
 51
94.7231577302
  0
ARC
  5
80
330
1F
100
AcDbEntity
  8
0
  6
Continuous
 62
     7
370
    15
100
AcDbCircle
 10
0.0
 20
0.0
 30
0.0
 40
25.5
100
AcDbArc
 50
159.0850862358
 51
160.5067504989
  0
ARC
  5
81
330
1F
100
AcDbEntity
  8
0
  6
Continuous
 62
     7
370
    15
100
AcDbCircle
 10
-17.0928498579
 20
15.4229884387
 30
0.0
 40
9.799999999999999
100
AcDbArc
 50
224.8686790045
 51
238.8696783548
  0
ARC
  5
82
330
1F
100
AcDbEntity
  8
0
  6
Continuous
 62
     7
370
    15
100
AcDbCircle
 10
0.0
 20
0.0
 30
0.0
 40
23.249
100
AcDbArc
 50
162.3884853122
 51
164.550290198
  0
ARC
  5
83
330
1F
100
AcDbEntity
  8
0
  6
Continuous
 62
     7
370
    15
100
AcDbCircle
 10
-22.7390926189
 20
-3.6010769937
 30
0.0
 40
9.799999999999999
100
AcDbArc
 50
88.0690971554
 51
102.0700965057
  0
ARC
  5
84
330
1F
100
AcDbEntity
  8
0
  6
Continuous
 62
     7
370
    15
100
AcDbCircle
 10
0.0
 20
0.0
 30
0.0
 40
25.5
100
AcDbArc
 50
166.4320250113
 51
167.8536892744
  0
ARC
  5
85
330
1F
100
AcDbEntity
  8
0
  6
Continuous
 62
     7
370
    15
100
AcDbCircle
 10
-18.9247657831
 20
13.1105807919
 30
0.0
 40
9.799999999999999
100
AcDbArc
 50
232.21561778
 51
246.2166171303
  0
ARC
  5
86
330
1F
100
AcDbEntity
  8
0
  6
Continuous
 62
     7
370
    15
100
AcDbCircle
 10
0.0
 20
0.0
 30
0.0
 40
23.24899999999999
100
AcDbArc
 50
169.7354240877
 51
171.8972289735
  0
ARC
  5
87
330
1F
100
AcDbEntity
  8
0
  6
Continuous
 62
     7
370
    15
100
AcDbCircle
 10
-22.0919094779
 20
-6.4793228247
 30
0.0
 40
9.799999999999999
100
AcDbArc
 50
95.4160359309
 51
109.4170352812
  0
ARC
  5
88
330
1F
100
AcDbEntity
  8
0
  6
Continuous
 62
     7
370
    15
100
AcDbCircle
 10
0.0
 20
0.0
 30
0.0
 40
25.5
100
AcDbArc
 50
173.7789637869
 51
175.2006280499
  0
ARC
  5
89
330
1F
100
AcDbEntity
  8
0
  6
Continuous
 62
     7
370
    15
100
AcDbCircle
 10
-20.4459375773
 20
10.5828977709
 30
0.0
 40
9.799999999999999
100
AcDbArc
 50
239.5625565555
 51
253.5635559058
  0
ARC
  5
8A
330
1F
100
AcDbEntity
  8
0
  6
Continuous
 62
     7
370
    15
100
AcDbCircle
 10
0.0
 20
0.0
 30
0.0
 40
23.249
100
AcDbArc
 50
177.0823628632
 51
179.244167749
  0
ARC
  5
8B
330
1F
100
AcDbEntity
  8
0
  6
Continuous
 62
     7
370
    15
100
AcDbCircle
 10
-21.081977794
 20
-9.2511783541
 30
0.0
 40
9.8
100
AcDbArc
 50
102.7629747064
 51
116.7639740567
  0
ARC
  5
8C
330
1F
100
AcDbEntity
  8
0
  6
Continuous
 62
     7
370
    15
100
AcDbCircle
 10
0.0
 20
0.0
 30
0.0
 40
25.5
100
AcDbArc
 50
181.1259025624
 51
182.5475668254
  0
ARC
  5
8D
330
1F
100
AcDbEntity
  8
0
  6
Continuous
 62
     7
370
    15
100
AcDbCircle
 10
-21.6313876418
 20
7.8814438611
 30
0.0
 40
9.799999999999997
100
AcDbArc
 50
246.909495331
 51
260.9104946813
  0
ARC
  5
8E
330
1F
100
AcDbEntity
  8
0
  6
Continuous
 62
     7
370
    15
100
AcDbCircle
 10
0.0
 20
0.0
 30
0.0
 40
23.249
100
AcDbArc
 50
184.4293016387
 51
186.5911065245
  0
ARC
  5
8F
330
1F
100
AcDbEntity
  8
0
  6
Continuous
 62
     7
370
    15
100
AcDbCircle
 10
-19.7258806175
 20
-11.8711297907
 30
0.0
 40
9.799999999999999
100
AcDbArc
 50
110.1099134819
 51
124.1109128322
  0
ARC
  5
90
330
1F
100
AcDbEntity
  8
0
  6
Continuous
 62
     7
370
    15
100
AcDbCircle
 10
0.0
 20
0.0
 30
0.0
 40
25.5
100
AcDbArc
 50
188.4728413379
 51
189.8945056009
  0
ARC
  5
91
330
1F
100
AcDbEntity
  8
0
  6
Continuous
 62
     7
370
    15
100
AcDbCircle
 10
-22.4616509192
 20
5.0505768611
 30
0.0
 40
9.799999999999999
100
AcDbArc
 50
254.2564341066
 51
268.2574334569
  0
ARC
  5
92
330
1F
100
AcDbEntity
  8
0
  6
Continuous
 62
     7
370
    15
100
AcDbCircle
 10
0.0
 20
0.0
 30
0.0
 40
23.249
100
AcDbArc
 50
191.7762404142
 51
193.9380453001
  0
ARC
  5
93
330
1F
100
AcDbEntity
  8
0
  6
Continuous
 62
     7
370
    15
100
AcDbCircle
 10
-18.0458850267
 20
-14.2961576043
 30
0.0
 40
9.800000000000002
100
AcDbArc
 50
117.4568522574
 51
131.4578516077
  0
ARC
  5
94
330
1F
100
AcDbEntity
  8
0
  6
Continuous
 62
     7
370
    15
100
AcDbCircle
 10
0.0
 20
0.0
 30
0.0
 40
25.5
100
AcDbArc
 50
195.8197801134
 51
197.2414443764
  0
ARC
  5
95
330
1F
100
AcDbEntity
  8
0
  6
Continuous
 62
     7
370
    15
100
AcDbCircle
 10
-22.9230945095
 20
2.1367795286
 30
0.0
 40
9.800000000000002
100
AcDbArc
 50
261.6033728821
 51
275.6043722324
  0
ARC
  5
96
330
1F
100
AcDbEntity
  8
0
  6
Continuous
 62
     7
370
    15
100
AcDbCircle
 10
0.0
 20
0.0
 30
0.0
 40
23.249
100
AcDbArc
 50
199.1231791897
 51
201.2849840756
  0
ARC
  5
97
330
1F
100
AcDbEntity
  8
0
  6
Continuous
 62
     7
370
    15
100
AcDbCircle
 10
-16.0695765027
 20
-16.4864429053
 30
0.0
 40
9.800000000000002
100
AcDbArc
 50
124.8037910329
 51
138.8047903832
  0
ARC
  5
98
330
1F
100
AcDbEntity
  8
0
  6
Continuous
 62
     7
370
    15
100
AcDbCircle
 10
0.0
 20
0.0
 30
0.0
 40
25.5
100
AcDbArc
 50
203.1667188889
 51
204.5883831519
  0
ARC
  5
99
330
1F
100
AcDbEntity
  8
0
  6
Continuous
 62
     7
370
    15
100
AcDbCircle
 10
-23.0081415217
 20
-0.8121036647
 30
0.0
 40
9.799999999999997
100
AcDbArc
 50
268.9503116576
 51
282.9513110079
  0
ARC
  5
9A
330
1F
100
AcDbEntity
  8
0
  6
Continuous
 62
     7
370
    15
100
AcDbCircle
 10
0.0
 20
0.0
 30
0.0
 40
23.24899999999999
100
AcDbArc
 50
206.4701179653
 51
208.6319228511
  0
ARC
  5
9B
330
1F
100
AcDbEntity
  8
0
  6
Continuous
 62
     7
370
    15
100
AcDbCircle
 10
-13.8294059767
 20
-18.4060212696
 30
0.0
 40
9.799999999999999
100
AcDbArc
 50
132.1507298085
 51
146.1517291588
  0
ARC
  5
9C
330
1F
100
AcDbEntity
  8
0
  6
Continuous
 62
     7
370
    15
100
AcDbCircle
 10
0.0
 20
0.0
 30
0.0
 40
25.5
100
AcDbArc
 50
210.5136576644
 51
211.9353219274
  0
ARC
  5
9D
330
1F
100
AcDbEntity
  8
0
  6
Continuous
 62
     7
370
    15
100
AcDbCircle
 10
-22.7153954862
 20
-3.7476521383
 30
0.0
 40
9.799999999999999
100
AcDbArc
 50
276.2972504331
 51
290.2982497834
  0
ARC
  5
9E
330
1F
100
AcDbEntity
  8
0
  6
Continuous
 62
     7
370
    15
100
AcDbCircle
 10
0.0
 20
0.0
 30
0.0
 40
23.249
100
AcDbArc
 50
213.8170567408
 51
215.9788616266
  0
ARC
  5
9F
330
1F
100
AcDbEntity
  8
0
  6
Continuous
 62
     7
370
    15
100
AcDbCircle
 10
-11.3621569869
 20
-20.0233732735
 30
0.0
 40
9.799999999999999
100
AcDbArc
 50
139.497668584
 51
153.4986679343
  0
ARC
  5
A0
330
1F
100
AcDbEntity
  8
0
  6
Continuous
 62
     7
370
    15
100
AcDbCircle
 10
0.0
 20
0.0
 30
0.0
 40
25.5
100
AcDbArc
 50
217.8605964399
 51
219.2822607029
  0
ARC
  5
A1
330
1F
100
AcDbEntity
  8
0
  6
Continuous
 62
     7
370
    15
100
AcDbCircle
 10
-22.0496632848
 20
-6.6216642674
 30
0.0
 40
9.799999999999995
100
AcDbArc
 50
283.6441892086
 51
297.6451885589
  0
ARC
  5
A2
330
1F
100
AcDbEntity
  8
0
  6
Continuous
 62
     7
370
    15
100
AcDbCircle
 10
0.0
 20
0.0
 30
0.0
 40
23.24899999999999
100
AcDbArc
 50
221.1639955163
 51
223.3258004021
  0
ARC
  5
A3
330
1F
100
AcDbEntity
  8
0
  6
Continuous
 62
     7
370
    15
100
AcDbCircle
 10
-8.7083416936
 20
-21.3119420418
 30
0.0
 40
9.8
100
AcDbArc
 50
146.8446073595
 51
160.8456067098
  0
ARC
  5
A4
330
1F
100
AcDbEntity
  8
0
  6
Continuous
 62
     7
370
    15
100
AcDbCircle
 10
0.0
 20
0.0
 30
0.0
 40
25.5
100
AcDbArc
 50
225.2075352154
 51
226.6291994785
  0
ARC
  5
A5
330
1F
100
AcDbEntity
  8
0
  6
Continuous
 62
     7
370
    15
100
AcDbCircle
 10
-21.0218762219
 20
-9.3869488522
 30
0.0
 40
9.799999999999997
100
AcDbArc
 50
290.9911279841
 51
304.9921273344
  0
ARC
  5
A6
330
1F
100
AcDbEntity
  8
0
  6
Continuous
 62
     7
370
    15
100
AcDbCircle
 10
0.0
 20
0.0
 30
0.0
 40
23.24899999999999
100
AcDbArc
 50
228.5109342918
 51
230.6727391776
  0
ARC
  5
A7
330
1F
100
AcDbEntity
  8
0
  6
Continuous
 62
     7
370
    15
100
AcDbCircle
 10
-5.9115356703
 20
-22.250569311
 30
0.0
 40
9.800000000000002
100
AcDbArc
 50
154.191546135
 51
168.1925454853
  0
ARC
  5
A8
330
1F
100
AcDbEntity
  8
0
  6
Continuous
 62
     7
370
    15
100
AcDbCircle
 10
0.0
 20
0.0
 30
0.0
 40
25.5
100
AcDbArc
 50
232.5544739909
 51
233.976138254
  0
ARC
  5
A9
330
1F
100
AcDbEntity
  8
0
  6
Continuous
 62
     7
370
    15
100
AcDbCircle
 10
-19.6489105326
 20
-11.9980999965
 30
0.0
 40
9.799999999999999
100
AcDbArc
 50
298.3380667596
 51
312.3390661099
  0
ARC
  5
AA
330
1F
100
AcDbEntity
  8
0
  6
Continuous
 62
     7
370
    15
100
AcDbCircle
 10
0.0
 20
0.0
 30
0.0
 40
23.249
100
AcDbArc
 50
235.8578730673
 51
238.0196779531
  0
ARC
  5
AB
330
1F
100
AcDbEntity
  8
0
  6
Continuous
 62
     7
370
    15
100
AcDbCircle
 10
-3.0176623949
 20
-22.8238428472
 30
0.0
 40
9.8
100
AcDbArc
 50
161.5384849105
 51
175.5394842608
  0
ARC
  5
AC
330
1F
100
AcDbEntity
  8
0
  6
Continuous
 62
     7
370
    15
100
AcDbCircle
 10
0.0
 20
0.0
 30
0.0
 40
25.5
100
AcDbArc
 50
239.9014127664
 51
241.3230770295
  0
ARC
  5
AD
330
1F
100
AcDbEntity
  8
0
  6
Continuous
 62
     7
370
    15
100
AcDbCircle
 10
-17.9533102756
 20
-14.4122426705
 30
0.0
 40
9.799999999999999
100
AcDbArc
 50
305.6850055351
 51
319.6860048854
  0
ARC
  5
AE
330
1F
100
AcDbEntity
  8
0
  6
Continuous
 62
     7
370
    15
100
AcDbCircle
 10
0.0
 20
0.0
 30
0.0
 40
23.249
100
AcDbArc
 50
243.2048118428
 51
245.3666167286
  0
ARC
  5
AF
330
1F
100
AcDbEntity
  8
0
  6
Continuous
 62
     7
370
    15
100
AcDbCircle
 10
-0.0742391863
 20
-23.0223495149
 30
0.0
 40
9.8
100
AcDbArc
 50
168.885423686
 51
182.8864230363
  0
ARC
  5
B0
330
1F
100
AcDbEntity
  8
0
  6
Continuous
 62
     7
370
    15
100
AcDbCircle
 10
0.0
 20
0.0
 30
0.0
 40
25.5
100
AcDbArc
 50
247.248351542
 51
248.670015805
  0
ARC
  5
B1
330
1F
100
AcDbEntity
  8
0
  6
Continuous
 62
     7
370
    15
100
AcDbCircle
 10
-15.9629171602
 20
-16.5897367182
 30
0.0
 40
9.799999999999999
100
AcDbArc
 50
313.0319443106
 51
327.0329436609
  0
ARC
  5
B2
330
1F
100
AcDbEntity
  8
0
  6
Continuous
 62
     7
370
    15
100
AcDbCircle
 10
0.0
 20
0.0
 30
0.0
 40
23.249
100
AcDbArc
 50
250.5517506183
 51
252.7135555041
  0
ARC
  5
B3
330
1F
100
AcDbEntity
  8
0
  6
Continuous
 62
     7
370
    15
100
AcDbCircle
 10
2.8704030277
 20
-22.8428298401
 30
0.0
 40
9.8
100
AcDbArc
 50
176.2323624615
 51
190.2333618118
  0
ARC
  5
B4
330
1F
100
AcDbEntity
  8
0
  6
Continuous
 62
     7
370
    15
100
AcDbCircle
 10
0.0
 20
0.0
 30
0.0
 40
25.5
100
AcDbArc
 50
254.5952903175
 51
256.0169545805
  0
ARC
  5
B5
330
1F
100
AcDbEntity
  8
0
  6
Continuous
 62
     7
370
    15
100
AcDbCircle
 10
-13.7104133864
 20
-18.4948277478
 30
0.0
 40
9.800000000000002
100
AcDbArc
 50
320.3788830861
 51
334.3798824364
  0
ARC
  5
B6
330
1F
100
AcDbEntity
  8
0
  6
Continuous
 62
     7
370
    15
100
AcDbCircle
 10
0.0
 20
0.0
 30
0.0
 40
23.249
100
AcDbArc
 50
257.8986893938
 51
260.0604942796
  0
ARC
  5
B7
330
1F
100
AcDbEntity
  8
0
  6
Continuous
 62
     7
370
    15
100
AcDbCircle
 10
5.7679133033
 20
-22.2882315308
 30
0.0
 40
9.8
100
AcDbArc
 50
183.579301237
 51
197.5803005873
  0
ARC
  5
B8
330
1F
100
AcDbEntity
  8
0
  6
Continuous
 62
     7
370
    15
100
AcDbCircle
 10
0.0
 20
0.0
 30
0.0
 40
25.5
100
AcDbArc
 50
261.942229093
 51
263.363893356
  0
ARC
  5
B9
330
1F
100
AcDbEntity
  8
0
  6
Continuous
 62
     7
370
    15
100
AcDbCircle
 10
-11.2327850038
 20
-20.096234217
 30
0.0
 40
9.800000000000002
100
AcDbArc
 50
327.7258218617
 51
341.726821212
  0
ARC
  5
BA
330
1F
100
AcDbEntity
  8
0
  6
Continuous
 62
     7
370
    15
100
AcDbCircle
 10
0.0
 20
0.0
 30
0.0
 40
23.249
100
AcDbArc
 50
265.2456281693
 51
267.4074330552
  0
ARC
  5
BB
330
1F
100
AcDbEntity
  8
0
  6
Continuous
 62
     7
370
    15
100
AcDbCircle
 10
8.570714602
 20
-21.367661076
 30
0.0
 40
9.800000000000002
100
AcDbArc
 50
190.9262400125
 51
204.9272393628
  0
ARC
  5
BC
330
1F
100
AcDbEntity
  8
0
  6
Continuous
 62
     7
370
    15
100
AcDbCircle
 10
0.0
 20
0.0
 30
0.0
 40
25.5
100
AcDbArc
 50
269.2891678685
 51
270.7108321315
  0
ARC
  5
BD
330
1F
100
AcDbEntity
  8
0
  6
Continuous
 62
     7
370
    15
100
AcDbCircle
 10
-8.570714602
 20
-21.367661076
 30
0.0
 40
9.799999999999999
100
AcDbArc
 50
335.0727606372
 51
349.0737599875
  0
ARC
  5
BE
330
1F
100
AcDbEntity
  8
0
  6
Continuous
 62
     7
370
    15
100
AcDbCircle
 10
0.0
 20
0.0
 30
0.0
 40
23.249
100
AcDbArc
 50
272.5925669448
 51
274.7543718307
  0
ARC
  5
BF
330
1F
100
AcDbEntity
  8
0
  6
Continuous
 62
     7
370
    15
100
AcDbCircle
 10
11.2327850038
 20
-20.096234217
 30
0.0
 40
9.800000000000002
100
AcDbArc
 50
198.273178788
 51
212.2741781383
  0
ARC
  5
C0
330
1F
100
AcDbEntity
  8
0
  6
Continuous
 62
     7
370
    15
100
AcDbCircle
 10
0.0
 20
0.0
 30
0.0
 40
25.5
100
AcDbArc
 50
276.636106644
 51
278.057770907
  0
ARC
  5
C1
330
1F
100
AcDbEntity
  8
0
  6
Continuous
 62
     7
370
    15
100
AcDbCircle
 10
-5.7679133033
 20
-22.2882315308
 30
0.0
 40
9.8
100
AcDbArc
 50
342.4196994127
 51
356.420698763
  0
ARC
  5
C2
330
1F
100
AcDbEntity
  8
0
  6
Continuous
 62
     7
370
    15
100
AcDbCircle
 10
0.0
 20
0.0
 30
0.0
 40
23.249
100
AcDbArc
 50
279.9395057204
 51
282.1013106062
  0
ARC
  5
C3
330
1F
100
AcDbEntity
  8
0
  6
Continuous
 62
     7
370
    15
100
AcDbCircle
 10
13.7104133864
 20
-18.4948277478
 30
0.0
 40
9.8
100
AcDbArc
 50
205.6201175636
 51
219.6211169139
  0
ARC
  5
C4
330
1F
100
AcDbEntity
  8
0
  6
Continuous
 62
     7
370
    15
100
AcDbCircle
 10
0.0
 20
0.0
 30
0.0
 40
25.5
100
AcDbArc
 50
283.9830454195
 51
285.4047096825
  0
ARC
  5
C5
330
1F
100
AcDbEntity
  8
0
  6
Continuous
 62
     7
370
    15
100
AcDbCircle
 10
-2.8704030277
 20
-22.8428298401
 30
0.0
 40
9.8
100
AcDbArc
 50
349.7666381882
 51
3.7676375385
  0
ARC
  5
C6
330
1F
100
AcDbEntity
  8
0
  6
Continuous
 62
     7
370
    15
100
AcDbCircle
 10
0.0
 20
0.0
 30
0.0
 40
23.249
100
AcDbArc
 50
287.2864444959
 51
289.4482493817
  0
ARC
  5
C7
330
1F
100
AcDbEntity
  8
0
  6
Continuous
 62
     7
370
    15
100
AcDbCircle
 10
15.9629171602
 20
-16.5897367182
 30
0.0
 40
9.800000000000002
100
AcDbArc
 50
212.9670563391
 51
226.9680556894
  0
ARC
  5
C8
330
1F
100
AcDbEntity
  8
0
  6
Continuous
 62
     7
370
    15
100
AcDbCircle
 10
0.0
 20
0.0
 30
0.0
 40
25.5
100
AcDbArc
 50
291.329984195
 51
292.751648458
  0
ARC
  5
C9
330
1F
100
AcDbEntity
  8
0
  6
Continuous
 62
     7
370
    15
100
AcDbCircle
 10
0.0742391863
 20
-23.0223495149
 30
0.0
 40
9.799999999999999
100
AcDbArc
 50
357.1135769637
 51
11.114576314
  0
ARC
  5
CA
330
1F
100
AcDbEntity
  8
0
  6
Continuous
 62
     7
370
    15
100
AcDbCircle
 10
0.0
 20
0.0
 30
0.0
 40
23.24899999999999
100
AcDbArc
 50
294.6333832714
 51
296.7951881572
  0
ARC
  5
CB
330
1F
100
AcDbEntity
  8
0
  6
Continuous
 62
     7
370
    15
100
AcDbCircle
 10
17.9533102756
 20
-14.4122426705
 30
0.0
 40
9.799999999999999
100
AcDbArc
 50
220.3139951146
 51
234.3149944649
  0
ARC
  5
CC
330
1F
100
AcDbEntity
  8
0
  6
Continuous
 62
     7
370
    15
100
AcDbCircle
 10
0.0
 20
0.0
 30
0.0
 40
25.5
100
AcDbArc
 50
298.6769229705
 51
300.0985872336
  0
ARC
  5
CD
330
1F
100
AcDbEntity
  8
0
  6
Continuous
 62
     7
370
    15
100
AcDbCircle
 10
3.0176623949
 20
-22.8238428472
 30
0.0
 40
9.799999999999999
100
AcDbArc
 50
4.4605157392
 51
18.4615150895
  0
ARC
  5
CE
330
1F
100
AcDbEntity
  8
0
  6
Continuous
 62
     7
370
    15
100
AcDbCircle
 10
0.0
 20
0.0
 30
0.0
 40
23.249
100
AcDbArc
 50
301.9803220469
 51
304.1421269327
  0
ARC
  5
CF
330
1F
100
AcDbEntity
  8
0
  6
Continuous
 62
     7
370
    15
100
AcDbCircle
 10
19.6489105326
 20
-11.9980999965
 30
0.0
 40
9.8
100
AcDbArc
 50
227.6609338901
 51
241.6619332404
  0
ARC
  5
D0
330
1F
100
AcDbEntity
  8
0
  6
Continuous
 62
     7
370
    15
100
AcDbCircle
 10
0.0
 20
0.0
 30
0.0
 40
25.5
100
AcDbArc
 50
306.023861746
 51
307.4455260091
  0
ARC
  5
D1
330
1F
100
AcDbEntity
  8
0
  6
Continuous
 62
     7
370
    15
100
AcDbCircle
 10
5.9115356704
 20
-22.250569311
 30
0.0
 40
9.799999999999995
100
AcDbArc
 50
11.8074545147
 51
25.808453865
  0
ARC
  5
D2
330
1F
100
AcDbEntity
  8
0
  6
Continuous
 62
     7
370
    15
100
AcDbCircle
 10
0.0
 20
0.0
 30
0.0
 40
23.249
100
AcDbArc
 50
309.3272608224
 51
311.4890657082
  0
ARC
  5
D3
330
1F
100
AcDbEntity
  8
0
  6
Continuous
 62
     7
370
    15
100
AcDbCircle
 10
21.0218762219
 20
-9.3869488522
 30
0.0
 40
9.8
100
AcDbArc
 50
235.0078726656
 51
249.0088720159
  0
ARC
  5
D4
330
1F
100
AcDbEntity
  8
0
  6
Continuous
 62
     7
370
    15
100
AcDbCircle
 10
0.0
 20
0.0
 30
0.0
 40
25.5
100
AcDbArc
 50
313.3708005215
 51
314.7924647846
  0
ARC
  5
D5
330
1F
100
AcDbEntity
  8
0
  6
Continuous
 62
     7
370
    15
100
AcDbCircle
 10
8.7083416936
 20
-21.3119420418
 30
0.0
 40
9.799999999999999
100
AcDbArc
 50
19.1543932902
 51
33.1553926405
  0
ARC
  5
D6
330
1F
100
AcDbEntity
  8
0
  6
Continuous
 62
     7
370
    15
100
AcDbCircle
 10
0.0
 20
0.0
 30
0.0
 40
23.249
100
AcDbArc
 50
316.6741995979
 51
318.8360044837
  0
ARC
  5
D7
330
1F
100
AcDbEntity
  8
0
  6
Continuous
 62
     7
370
    15
100
AcDbCircle
 10
22.0496632848
 20
-6.6216642674
 30
0.0
 40
9.8
100
AcDbArc
 50
242.3548114411
 51
256.3558107914
  0
ARC
  5
D8
330
1F
100
AcDbEntity
  8
0
  6
Continuous
 62
     7
370
    15
100
AcDbCircle
 10
0.0
 20
0.0
 30
0.0
 40
25.5
100
AcDbArc
 50
320.7177392971
 51
322.1394035601
  0
ARC
  5
D9
330
1F
100
AcDbEntity
  8
0
  6
Continuous
 62
     7
370
    15
100
AcDbCircle
 10
11.3621569869
 20
-20.0233732735
 30
0.0
 40
9.799999999999995
100
AcDbArc
 50
26.5013320657
 51
40.502331416
  0
ARC
  5
DA
330
1F
100
AcDbEntity
  8
0
  6
Continuous
 62
     7
370
    15
100
AcDbCircle
 10
0.0
 20
0.0
 30
0.0
 40
23.249
100
AcDbArc
 50
324.0211383734
 51
326.1829432592
  0
ARC
  5
DB
330
1F
100
AcDbEntity
  8
0
  6
Continuous
 62
     7
370
    15
100
AcDbCircle
 10
22.7153954862
 20
-3.7476521383
 30
0.0
 40
9.800000000000002
100
AcDbArc
 50
249.7017502166
 51
263.7027495669
  0
ARC
  5
DC
330
1F
100
AcDbEntity
  8
0
  6
Continuous
 62
     7
370
    15
100
AcDbCircle
 10
0.0
 20
0.0
 30
0.0
 40
25.5
100
AcDbArc
 50
328.0646780726
 51
329.4863423356
  0
ARC
  5
DD
330
1F
100
AcDbEntity
  8
0
  6
Continuous
 62
     7
370
    15
100
AcDbCircle
 10
13.8294059767
 20
-18.4060212696
 30
0.0
 40
9.799999999999999
100
AcDbArc
 50
33.8482708412
 51
47.8492701915
  0
ARC
  5
DE
330
1F
100
AcDbEntity
  8
0
  6
Continuous
 62
     7
370
    15
100
AcDbCircle
 10
0.0
 20
0.0
 30
0.0
 40
23.249
100
AcDbArc
 50
331.3680771489
 51
333.5298820347
  0
ARC
  5
DF
330
1F
100
AcDbEntity
  8
0
  6
Continuous
 62
     7
370
    15
100
AcDbCircle
 10
23.0081415217
 20
-0.8121036647
 30
0.0
 40
9.8
100
AcDbArc
 50
257.0486889921
 51
271.0496883424
  0
ARC
  5
E0
330
1F
100
AcDbEntity
  8
0
  6
Continuous
 62
     7
370
    15
100
AcDbCircle
 10
0.0
 20
0.0
 30
0.0
 40
25.5
100
AcDbArc
 50
335.4116168481
 51
336.8332811111
  0
ARC
  5
E1
330
1F
100
AcDbEntity
  8
0
  6
Continuous
 62
     7
370
    15
100
AcDbCircle
 10
16.0695765027
 20
-16.4864429053
 30
0.0
 40
9.799999999999997
100
AcDbArc
 50
41.1952096168
 51
55.1962089671
  0
ARC
  5
E2
330
1F
100
AcDbEntity
  8
0
  6
Continuous
 62
     7
370
    15
100
AcDbCircle
 10
0.0
 20
0.0
 30
0.0
 40
23.249
100
AcDbArc
 50
338.7150159244
 51
340.8768208103
  0
ARC
  5
E3
330
1F
100
AcDbEntity
  8
0
  6
Continuous
 62
     7
370
    15
100
AcDbCircle
 10
22.9230945095
 20
2.1367795286
 30
0.0
 40
9.8
100
AcDbArc
 50
264.3956277676
 51
278.3966271179
  0
ARC
  5
E4
330
1F
100
AcDbEntity
  8
0
  6
Continuous
 62
     7
370
    15
100
AcDbCircle
 10
0.0
 20
0.0
 30
0.0
 40
25.5
100
AcDbArc
 50
342.7585556236
 51
344.1802198866
  0
ARC
  5
E5
330
1F
100
AcDbEntity
  8
0
  6
Continuous
 62
     7
370
    15
100
AcDbCircle
 10
18.0458850267
 20
-14.2961576043
 30
0.0
 40
9.8
100
AcDbArc
 50
48.5421483923
 51
62.5431477426
  0
ARC
  5
E6
330
1F
100
AcDbEntity
  8
0
  6
Continuous
 62
     7
370
    15
100
AcDbCircle
 10
0.0
 20
0.0
 30
0.0
 40
23.249
100
AcDbArc
 50
346.0619547
 51
348.2237595858
  0
ARC
  5
E7
330
1F
100
AcDbEntity
  8
0
  6
Continuous
 62
     7
370
    15
100
AcDbCircle
 10
22.4616509192
 20
5.0505768611
 30
0.0
 40
9.8
100
AcDbArc
 50
271.7425665431
 51
285.7435658934
  0
ARC
  5
E8
330
1F
100
AcDbEntity
  8
0
  6
Continuous
 62
     7
370
    15
100
AcDbCircle
 10
0.0
 20
0.0
 30
0.0
 40
25.5
100
AcDbArc
 50
350.1054943991
 51
351.5271586621
  0
ARC
  5
E9
330
1F
100
AcDbEntity
  8
0
  6
Continuous
 62
     7
370
    15
100
AcDbCircle
 10
19.7258806175
 20
-11.8711297907
 30
0.0
 40
9.800000000000002
100
AcDbArc
 50
55.8890871678
 51
69.8900865181
  0
ARC
  5
EA
330
1F
100
AcDbEntity
  8
0
  6
Continuous
 62
     7
370
    15
100
AcDbCircle
 10
0.0
 20
0.0
 30
0.0
 40
23.249
100
AcDbArc
 50
353.4088934755
 51
355.5706983613
  0
ARC
  5
EB
330
1F
100
AcDbEntity
  8
0
  6
Continuous
 62
     7
370
    15
100
AcDbCircle
 10
21.6313876418
 20
7.8814438611
 30
0.0
 40
9.800000000000002
100
AcDbArc
 50
279.0895053187
 51
293.090504669
  0
ARC
  5
EC
330
1F
100
AcDbEntity
  8
0
  6
Continuous
 62
     7
370
    15
100
AcDbCircle
 10
0.0
 20
0.0
 30
0.0
 40
25.5
100
AcDbArc
 50
357.4524331746
 51
358.8740974376
  0
ARC
  5
ED
330
1F
100
AcDbEntity
  8
0
  6
Continuous
 62
     7
370
    15
100
AcDbCircle
 10
21.081977794
 20
-9.2511783541
 30
0.0
 40
9.799999999999999
100
AcDbArc
 50
63.2360259433
 51
77.2370252936
  0
ARC
  5
EE
330
1F
100
AcDbEntity
  8
0
  6
Continuous
 62
     7
370
    15
100
AcDbCircle
 10
0.0
 20
0.0
 30
0.0
 40
23.249
100
AcDbArc
 50
0.755832251
 51
2.9176371368
  0
ARC
  5
EF
330
1F
100
AcDbEntity
  8
0
  6
Continuous
 62
     7
370
    15
100
AcDbCircle
 10
20.4459375773
 20
10.5828977709
 30
0.0
 40
9.800000000000002
100
AcDbArc
 50
286.4364440942
 51
300.4374434445
  0
ARC
  5
F0
330
1F
100
AcDbEntity
  8
0
  6
Continuous
 62
     7
370
    15
100
AcDbCircle
 10
0.0
 20
0.0
 30
0.0
 40
25.5
100
AcDbArc
 50
4.7993719501
 51
6.2210362132
  0
ARC
  5
F1
330
1F
100
AcDbEntity
  8
0
  6
Continuous
 62
     7
370
    15
100
AcDbCircle
 10
22.0919094779
 20
-6.4793228247
 30
0.0
 40
9.800000000000002
100
AcDbArc
 50
70.5829647188
 51
84.5839640691
  0
ARC
  5
F2
330
1F
100
AcDbEntity
  8
0
  6
Continuous
 62
     7
370
    15
100
AcDbCircle
 10
0.0
 20
0.0
 30
0.0
 40
23.249
100
AcDbArc
 50
8.1027710265
 51
10.2645759123
  0
ARC
  5
F3
330
1F
100
AcDbEntity
  8
0
  6
Continuous
 62
     7
370
    15
100
AcDbCircle
 10
18.9247657831
 20
13.1105807919
 30
0.0
 40
9.800000000000002
100
AcDbArc
 50
293.7833828697
 51
307.78438222
  0
ARC
  5
F4
330
1F
100
AcDbEntity
  8
0
  6
Continuous
 62
     7
370
    15
100
AcDbCircle
 10
0.0
 20
0.0
 30
0.0
 40
25.5
100
AcDbArc
 50
12.1463107256
 51
13.5679749887
  0
ARC
  5
F5
330
1F
100
AcDbEntity
  8
0
  6
Continuous
 62
     7
370
    15
100
AcDbCircle
 10
22.7390926189
 20
-3.6010769937
 30
0.0
 40
9.799999999999997
100
AcDbArc
 50
77.9299034943
 51
91.9309028446
  0
ARC
  5
F6
330
1F
100
AcDbEntity
  8
0
  6
Continuous
 62
     7
370
    15
100
AcDbCircle
 10
0.0
 20
0.0
 30
0.0
 40
23.249
100
AcDbArc
 50
15.449709802
 51
17.6115146878
  0
ARC
  5
F7
330
1F
100
AcDbEntity
  8
0
  6
Continuous
 62
     7
370
    15
100
AcDbCircle
 10
17.0928498579
 20
15.4229884387
 30
0.0
 40
9.799999999999999
100
AcDbArc
 50
301.1303216452
 51
315.1313209955
  0
ARC
  5
F8
330
1F
100
AcDbEntity
  8
0
  6
Continuous
 62
     7
370
    15
100
AcDbCircle
 10
0.0
 20
0.0
 30
0.0
 40
25.5
100
AcDbArc
 50
19.4932495011
 51
20.9149137642
  0
ARC
  5
F9
330
1F
100
AcDbEntity
  8
0
  6
Continuous
 62
     7
370
    15
100
AcDbCircle
 10
23.0129004878
 20
-0.663701578
 30
0.0
 40
9.799999999999999
100
AcDbArc
 50
85.2768422698
 51
99.2778416201
  0
ARC
  5
FA
330
1F
100
AcDbEntity
  8
0
  6
Continuous
 62
     7
370
    15
100
AcDbCircle
 10
0.0
 20
0.0
 30
0.0
 40
23.249
100
AcDbArc
 50
22.7966485775
 51
24.9584534633
  0
ARC
  5
FB
330
1F
100
AcDbEntity
  8
0
  6
Continuous
 62
     7
370
    15
100
AcDbCircle
 10
14.9802698106
 20
17.4821510417
 30
0.0
 40
9.800000000000002
100
AcDbArc
 50
308.4772604207
 51
322.478259771
  0
ARC
  5
FC
330
1F
100
AcDbEntity
  8
0
  6
Continuous
 62
     7
370
    15
100
AcDbCircle
 10
0.0
 20
0.0
 30
0.0
 40
25.5
100
AcDbArc
 50
26.8401882766
 51
28.2618525397
  0
ARC
  5
FD
330
1F
100
AcDbEntity
  8
0
  6
Continuous
 62
     7
370
    15
100
AcDbCircle
 10
22.9088371669
 20
2.2845717993
 30
0.0
 40
9.799999999999997
100
AcDbArc
 50
92.6237810453
 51
106.6247803956
  0
ARC
  5
FE
330
1F
100
AcDbEntity
  8
0
  6
Continuous
 62
     7
370
    15
100
AcDbCircle
 10
0.0
 20
0.0
 30
0.0
 40
23.249
100
AcDbArc
 50
30.143587353
 51
32.3053922388
  0
ARC
  5
FF
330
1F
100
AcDbEntity
  8
0
  6
Continuous
 62
     7
370
    15
100
AcDbCircle
 10
12.6217141472
 20
19.254257208
 30
0.0
 40
9.800000000000006
100
AcDbArc
 50
315.8241991962
 51
329.8251985465
  0
ARC
  5
100
330
1F
100
AcDbEntity
  8
0
  6
Continuous
 62
     7
370
    15
100
AcDbCircle
 10
0.0
 20
0.0
 30
0.0
 40
25.5
100
AcDbArc
 50
34.1871270522
 51
35.6087913152
  0
ARC
  5
101
330
1F
100
AcDbEntity
  8
0
  6
Continuous
 62
     7
370
    15
100
AcDbCircle
 10
22.4286113731
 20
5.1953325708
 30
0.0
 40
9.799999999999999
100
AcDbArc
 50
99.9707198208
 51
113.9717191711
  0
ARC
  5
102
330
1F
100
AcDbEntity
  8
0
  6
Continuous
 62
     7
370
    15
100
AcDbCircle
 10
0.0
 20
0.0
 30
0.0
 40
23.249
100
AcDbArc
 50
37.4905261285
 51
39.6523310143
  0
ARC
  5
103
330
1F
100
AcDbEntity
  8
0
  6
Continuous
 62
     7
370
    15
100
AcDbCircle
 10
10.0559102864
 20
20.7102090032
 30
0.0
 40
9.799999999999999
100
AcDbArc
 50
323.1711379717
 51
337.172137322
  0
ARC
  5
104
330
1F
100
AcDbEntity
  8
0
  6
Continuous
 62
     7
370
    15
100
AcDbCircle
 10
0.0
 20
0.0
 30
0.0
 40
25.5
100
AcDbArc
 50
41.5340658277
 51
42.9557300907
  0
ARC
  5
105
330
1F
100
AcDbEntity
  8
0
  6
Continuous
 62
     7
370
    15
100
AcDbCircle
 10
21.5801084006
 20
8.0207861251
 30
0.0
 40
9.8
100
AcDbArc
 50
107.3176585964
 51
121.3186579467
  0
ARC
  5
106
330
1F
100
AcDbEntity
  8
0
  6
Continuous
 62
     7
370
    15
100
AcDbCircle
 10
0.0
 20
0.0
 30
0.0
 40
23.249
100
AcDbArc
 50
44.837464904
 51
46.9992697898
  0
ARC
  5
107
330
1F
100
AcDbEntity
  8
0
  6
Continuous
 62
     7
370
    15
100
AcDbCircle
 10
7.3249886568
 20
21.8260997392
 30
0.0
 40
9.8
100
AcDbArc
 50
330.5180767472
 51
344.5190760975
  0
ARC
  5
108
330
1F
100
AcDbEntity
  8
0
  6
Continuous
 62
     7
370
    15
100
AcDbCircle
 10
0.0
 20
0.0
 30
0.0
 40
25.5
100
AcDbArc
 50
48.8810046032
 51
50.3026688662
  0
ARC
  5
109
330
1F
100
AcDbEntity
  8
0
  6
Continuous
 62
     7
370
    15
100
AcDbCircle
 10
20.3772606447
 20
10.714538593
 30
0.0
 40
9.799999999999992
100
AcDbArc
 50
114.6645973719
 51
128.6655967222
  0
ARC
  5
10A
330
1F
100
AcDbEntity
  8
0
  6
Continuous
 62
     7
370
    15
100
AcDbCircle
 10
0.0
 20
0.0
 30
0.0
 40
23.24899999999999
100
AcDbArc
 50
52.1844036795
 51
54.3462085654
  0
ARC
  5
10B
330
1F
100
AcDbEntity
  8
0
  6
Continuous
 62
     7
370
    15
100
AcDbCircle
 10
4.4737909159
 20
22.5836065208
 30
0.0
 40
9.800000000000002
100
AcDbArc
 50
337.8650155227
 51
351.866014873
  0
ARC
  5
10C
330
1F
100
AcDbEntity
  8
0
  6
Continuous
 62
     7
370
    15
100
AcDbCircle
 10
0.0
 20
0.0
 30
0.0
 40
25.5
100
AcDbArc
 50
56.2279433787
 51
57.6496076417
  0
ARC
  5
10D
330
1F
100
AcDbEntity
  8
0
  6
Continuous
 62
     7
370
    15
100
AcDbCircle
 10
18.8398188325
 20
13.2323586334
 30
0.0
 40
9.799999999999999
100
AcDbArc
 50
122.0115361474
 51
136.0125354977
  0
ARC
  5
10E
330
1F
100
AcDbEntity
  8
0
  6
Continuous
 62
     7
370
    15
100
AcDbCircle
 10
0.0
 20
0.0
 30
0.0
 40
23.249
100
AcDbArc
 50
59.5313424551
 51
61.6931473409
  0
ARC
  5
10F
330
1F
100
AcDbEntity
  8
0
  6
Continuous
 62
     7
370
    15
100
AcDbCircle
 10
1.5491336518
 20
22.9702911077
 30
0.0
 40
9.800000000000002
100
AcDbArc
 50
345.2119542982
 51
359.2129536485
  0
ARC
  5
110
330
1F
100
AcDbEntity
  8
0
  6
Continuous
 62
     7
370
    15
100
AcDbCircle
 10
0.0
 20
0.0
 30
0.0
 40
25.5
100
AcDbArc
 50
63.5748821542
 51
64.9965464172
  0
ARC
  5
111
330
1F
100
AcDbEntity
  8
0
  6
Continuous
 62
     7
370
    15
100
AcDbCircle
 10
16.9930277159
 20
15.5329037109
 30
0.0
 40
9.799999999999999
100
AcDbArc
 50
129.3584749229
 51
143.3594742732
  0
ARC
  5
112
330
1F
100
AcDbEntity
  8
0
  6
Continuous
 62
     7
370
    15
100
AcDbCircle
 10
0.0
 20
0.0
 30
0.0
 40
23.249
100
AcDbArc
 50
66.8782812306
 51
69.0400861164
  0
ARC
  5
113
330
1F
100
AcDbEntity
  8
0
  6
Continuous
 62
     7
370
    15
100
AcDbCircle
 10
-1.400960344
 20
22.9798041497
 30
0.0
 40
9.800000000000002
100
AcDbArc
 50
352.5588930738
 51
6.5598924241
  0
ARC
  5
114
330
1F
100
AcDbEntity
  8
0
  6
Continuous
 62
     7
370
    15
100
AcDbCircle
 10
0.0
 20
0.0
 30
0.0
 40
25.5
100
AcDbArc
 50
70.9218209297
 51
72.3434851927
  0
ARC
  5
115
330
1F
100
AcDbEntity
  8
0
  6
Continuous
 62
     7
370
    15
100
AcDbCircle
 10
14.8672115539
 20
17.5783989389
 30
0.0
 40
9.799999999999999
100
AcDbArc
 50
136.7054136984
 51
150.7064130487
  0
ARC
  5
116
330
1F
100
AcDbEntity
  8
0
  6
Continuous
 62
     7
370
    15
100
AcDbCircle
 10
0.0
 20
0.0
 30
0.0
 40
23.249
100
AcDbArc
 50
74.2252200061
 51
76.3870248919
  0
ARC
  5
117
330
1F
100
AcDbEntity
  8
0
  6
Continuous
 62
     7
370
    15
100
AcDbCircle
 10
-4.3280506097
 20
22.6119894429
 30
0.0
 40
9.799999999999999
100
AcDbArc
 50
359.9058318493
 51
13.9068311996
  0
ARC
  5
118
330
1F
100
AcDbEntity
  8
0
  6
Continuous
 62
     7
370
    15
100
AcDbCircle
 10
0.0
 20
0.0
 30
0.0
 40
25.5
100
AcDbArc
 50
78.2687597052
 51
79.6904239683
  0
LINE
  5
119
330
1F
100
AcDbEntity
  8
0
  6
Continuous
 62
     7
370
    15
100
AcDbLine
 10
-19.2627931908
 20
1.130219505
 30
0.0
 11
-20.1585439292
 21
1.9118335842
 31
0.0
  0
ARC
  5
11A
330
1F
100
AcDbEntity
  8
0
  6
Continuous
 62
     7
370
    15
100
AcDbCircle
 10
0.0
 20
0.0
 30
0.0
 40
20.24900000000002
100
AcDbArc
 50
142.1634611905
 51
174.5822806357
  0
SPLINE
  5
11B
330
1F
100
AcDbEntity
  8
0
  6
Continuous
 62
     7
370
    15
100
AcDbSpline
210
0.0
220
0.0
230
1.0
 70
     8
 71
     3
 72
    19
 73
    15
 74
     0
 42
0.00000001
 43
0.00000001
 40
0.0598223357453402
 40
0.0598223357453402
 40
0.0598223357453402
 40
0.0598223357453402
 40
0.0674896681784606
 40
0.125
 40
0.25
 40
0.375
 40
0.5
 40
0.625
 40
0.75
 40
0.8125
 40
0.875
 40
0.9375
 40
0.96875
 40
0.9953947233875073
 40
0.9953947233875073
 40
0.9953947233875073
 40
0.9953947233875073
 10
-15.99193097459815
 20
12.42095586916273
 30
0.0
 10
-15.97279402832762
 20
12.36645128882047
 30
0.0
 10
-15.80541997798991
 20
11.90757312540564
 30
0.0
 10
-15.19951988295862
 20
10.66499907480435
 30
0.0
 10
-13.76295678881198
 20
9.181282022957761
 30
0.0
 10
-11.75836585529517
 20
8.118722945028066
 30
0.0
 10
-9.772602338308639
 20
7.402648207246953
 30
0.0
 10
-7.955158597715839
 20
6.746206296000294
 30
0.0
 10
-6.73478308864321
 20
6.094870679203996
 30
0.0
 10
-5.980230476623208
 20
5.456330657912981
 30
0.0
 10
-5.511057920922405
 20
4.894568098185083
 30
0.0
 10
-5.18754493916275
 20
4.309215550046139
 30
0.0
 10
-4.982566646390422
 20
3.768304689853307
 30
0.0
 10
-4.895446470350944
 20
3.460704878136759
 30
0.0
 10
-4.860985596289721
 20
3.32034041051306
 30
0.0
  0
ARC
  5
11C
330
1F
100
AcDbEntity
  8
0
  6
Continuous
 62
     7
370
    15
100
AcDbCircle
 10
0.0
 20
0.0
 30
0.0
 40
5.886751345948131
100
AcDbArc
 50
145.6646152376
 51
156.8934036378
  0
SPLINE
  5
11D
330
1F
100
AcDbEntity
  8
0
  6
Continuous
 62
     7
370
    15
100
AcDbSpline
210
0.0
220
0.0
230
1.0
 70
     8
 71
     3
 72
    19
 73
    15
 74
     0
 42
0.00000001
 43
0.00000001
 40
0.0
 40
0.0
 40
0.0
 40
0.0
 40
0.03125
 40
0.0625
 40
0.125
 40
0.1875
 40
0.25
 40
0.375
 40
0.5
 40
0.625
 40
0.75
 40
0.8125
 40
0.875
 40
0.9225327080442387
 40
0.9225327080442387
 40
0.9225327080442387
 40
0.9225327080442387
 10
-19.26279319075159
 20
1.130219504960025
 30
0.0
 10
-19.1293183594908
 20
1.013755113337588
 30
0.0
 10
-18.83760604687264
 20
0.7808363738625691
 30
0.0
 10
-18.33385333015349
 20
0.4567527155211347
 30
0.0
 10
-17.77147243614545
 20
0.2165919541173625
 30
0.0
 10
-17.1779339785903
 20
0.1174938762117784
 30
0.0
 10
-16.36448626296263
 20
0.1613242058522385
 30
0.0
 10
-15.1629219264498
 20
0.5668181794000324
 30
0.0
 10
-13.45601035514662
 20
1.499167558780193
 30
0.0
 10
-11.51828659652061
 20
2.530743854104235
 30
0.0
 10
-9.588416485352916
 20
3.130613241762521
 30
0.0
 10
-7.827419339788168
 20
3.138977428699854
 30
0.0
 10
-6.563900151529337
 20
2.855999816156667
 30
0.0
 10
-5.75917501765583
 20
2.497389223994916
 30
0.0
 10
-5.414494502356719
 20
2.310214425755957
 30
0.0
  0
SPLINE
  5
11E
330
1F
100
AcDbEntity
  8
0
  6
Continuous
 62
     7
370
    15
100
AcDbSpline
210
0.0
220
0.0
230
1.0
 70
     8
 71
     3
 72
    18
 73
    14
 74
     0
 42
0.00000001
 43
0.00000001
 40
0.0
 40
0.0
 40
0.0
 40
0.0
 40
0.03125
 40
0.0625
 40
0.125
 40
0.1875
 40
0.25
 40
0.375
 40
0.5
 40
0.625
 40
0.75
 40
0.875
 40
0.9190257216055207
 40
0.9190257216055207
 40
0.9190257216055207
 40
0.9190257216055207
 10
-14.42003756596106
 20
-12.82166581358797
 30
0.0
 10
-14.25818989635132
 20
-12.80258202705183
 30
0.0
 10
-13.92287805407997
 20
-12.74854853328008
 30
0.0
 10
-13.36793414147329
 20
-12.60414958955939
 30
0.0
 10
-12.79317623900835
 20
-12.35877804373171
 30
0.0
 10
-12.24289666520402
 20
-11.97732604993018
 30
0.0
 10
-11.60375475824643
 20
-11.33096641026179
 30
0.0
 10
-10.91457087868827
 20
-10.21248430469106
 30
0.0
 10
-10.17917402244645
 20
-8.456737365962812
 30
0.0
 10
-9.370909843644574
 20
-6.492732884084292
 30
0.0
 10
-8.219935595951647
 20
-4.496445664597881
 30
0.0
 10
-6.766204061323965
 20
-3.121340117751464
 30
0.0
 10
-5.669897550584073
 20
-2.547490328187509
 30
0.0
 10
-5.368576287515983
 20
-2.415001046406233
 30
0.0
  0
LINE
  5
11F
330
1F
100
AcDbEntity
  8
0
  6
Continuous
 62
     7
370
    15
100
AcDbLine
 10
-14.420037566
 20
-12.8216658136
 30
0.0
 11
-15.6061136031
 21
-12.9023726193
 31
0.0
  0
ARC
  5
120
330
1F
100
AcDbEntity
  8
0
  6
Continuous
 62
     7
370
    15
100
AcDbCircle
 10
0.0
 20
0.0
 30
0.0
 40
20.249
100
AcDbArc
 50
185.4811788375
 51
219.5822806357
  0
SPLINE
  5
121
330
1F
100
AcDbEntity
  8
0
  6
Continuous
 62
     7
370
    15
100
AcDbSpline
210
0.0
220
0.0
230
1.0
 70
     8
 71
     3
 72
    19
 73
    15
 74
     0
 42
0.00000001
 43
0.00000001
 40
0.0532566960057696
 40
0.0532566960057696
 40
0.0532566960057696
 40
0.0532566960057696
 40
0.0625
 40
0.125
 40
0.25
 40
0.375
 40
0.5
 40
0.625
 40
0.75
 40
0.8125
 40
0.875
 40
0.9375
 40
0.96875
 40
0.99551130345029
 40
0.99551130345029
 40
0.99551130345029
 40
0.99551130345029
 10
-20.15641406272373
 20
-1.934159541514909
 30
0.0
 10
-20.09327877473235
 20
-1.973323103895587
 30
0.0
 10
-19.60215549694187
 20
-2.26742161673564
 30
0.0
 10
-18.21681317228505
 20
-2.876390760842857
 30
0.0
 10
-16.01139456936445
 20
-2.93587167679498
 30
0.0
 10
-13.8327761699909
 20
-2.130623723159243
 30
0.0
 10
-11.96532485055032
 20
-1.101319782367831
 30
0.0
 10
-10.27599374625341
 20
-0.2177791083508371
 30
0.0
 10
-9.051530881413766
 20
0.1315245082188486
 30
0.0
 10
-8.156848476817041
 20
0.1303105645532131
 30
0.0
 10
-7.461878696179776
 20
-0.0213524898523275
 30
0.0
 10
-6.796778960378917
 20
-0.3317280956241204
 30
0.0
 10
-6.230823546977231
 20
-0.7093464724987504
 30
0.0
 10
-5.923419970467584
 20
-0.9550580362723446
 30
0.0
 10
-5.788625103816404
 20
-1.070355462679941
 30
0.0
  0
ARC
  5
122
330
1F
100
AcDbEntity
  8
0
  6
Continuous
 62
     7
370
    15
100
AcDbCircle
 10
0.0
 20
0.0
 30
0.0
 40
5.886751345948128
100
AcDbArc
 50
190.4760482797
 51
204.2201274244
  0
SPLINE
  5
123
330
1F
100
AcDbEntity
  8
0
  6
Continuous
 62
     7
370
    15
100
AcDbSpline
210
0.0
220
0.0
230
1.0
 70
     8
 71
     3
 72
    18
 73
    14
 74
     0
 42
0.00000001
 43
0.00000001
 40
0.0
 40
0.0
 40
0.0
 40
0.0
 40
0.03125
 40
0.0625
 40
0.125
 40
0.1875
 40
0.25
 40
0.375
 40
0.5
 40
0.625
 40
0.75
 40
0.875
 40
0.9234078973473432
 40
0.9234078973473432
 40
0.9234078973473432
 40
0.9234078973473432
 10
12.82166581358797
 20
-14.42003756596106
 30
0.0
 10
12.79996750260516
 20
-14.25851963393135
 30
0.0
 10
12.74051919947321
 20
-13.92412533183976
 30
0.0
 10
12.587165887852
 20
-13.37158885078021
 30
0.0
 10
12.33253278981741
 20
-12.80087366144926
 30
0.0
 10
11.94223284048568
 20
-12.25683397312396
 30
0.0
 10
11.28562300618024
 20
-11.62822703193175
 30
0.0
 10
10.15614326902372
 20
-10.95721871329658
 30
0.0
 10
8.38873476552741
 20
-10.25030780604383
 30
0.0
 10
6.411917707142458
 20
-9.47390655330692
 30
0.0
 10
4.397280631454923
 20
-8.355362037070634
 30
0.0
 10
2.978006229031489
 20
-6.902723256271653
 30
0.0
 10
2.37681901215506
 20
-5.780636480435069
 30
0.0
 10
2.229489615808419
 20
-5.448230672615147
 30
0.0
  0
LINE
  5
124
330
1F
100
AcDbEntity
  8
0
  6
Continuous
 62
     7
370
    15
100
AcDbLine
 10
12.8216658136
 20
-14.420037566
 30
0.0
 11
12.9023726193
 21
-15.6061136031
 31
0.0
  0
ARC
  5
125
330
1F
100
AcDbEntity
  8
0
  6
Continuous
 62
     7
370
    15
100
AcDbCircle
 10
0.0
 20
0.0
 30
0.0
 40
20.249
100
AcDbArc
 50
277.1634611905
 51
309.5822806357
  0
SPLINE
  5
126
330
1F
100
AcDbEntity
  8
0
  6
Continuous
 62
     7
370
    15
100
AcDbSpline
210
0.0
220
0.0
230
1.0
 70
     8
 71
     3
 72
    19
 73
    15
 74
     0
 42
0.00000001
 43
0.00000001
 40
0.0598223357453398
 40
0.0598223357453398
 40
0.0598223357453398
 40
0.0598223357453398
 40
0.0674896681784606
 40
0.125
 40
0.25
 40
0.375
 40
0.5
 40
0.625
 40
0.75
 40
0.8125
 40
0.875
 40
0.9375
 40
0.96875
 40
0.9953947233875075
 40
0.9953947233875075
 40
0.9953947233875075
 40
0.9953947233875075
 10
2.525060712501582
 20
-20.09094496030939
 30
0.0
 10
2.550069406388229
 20
-20.03887253746455
 30
0.0
 10
2.756193941488835
 20
-19.59604535038703
 30
0.0
 10
3.206390412877259
 20
-18.28897674716223
 30
0.0
 10
3.239733296126698
 20
-16.22402685296598
 30
0.0
 10
2.573616182947321
 20
-14.05522428095575
 30
0.0
 10
1.675810637174725
 20
-12.14473612934031
 30
0.0
 10
0.8548583706740978
 20
-10.39543480904452
 30
0.0
 10
0.452486404079855
 20
-9.071935179520292
 30
0.0
 10
0.3704531144723779
 20
-8.086869931685046
 30
0.0
 10
0.4359241341900346
 20
-7.357888720602076
 30
0.0
 10
0.6210726671597815
 20
-6.715223741224074
 30
0.0
 10
0.8586128636042333
 20
-6.18780046314892
 30
0.0
 10
1.014515509105032
 20
-5.908691283136766
 30
0.0
 10
1.089400658265084
 20
-5.785071098508102
 30
0.0
  0
ARC
  5
127
330
1F
100
AcDbEntity
  8
0
  6
Continuous
 62
     7
370
    15
100
AcDbCircle
 10
0.0
 20
0.0
 30
0.0
 40
5.886751345948129
100
AcDbArc
 50
280.6646152376
 51
292.25504103
  0
SPLINE
  5
128
330
1F
100
AcDbEntity
  8
0
  6
Continuous
 62
     7
370
    15
100
AcDbSpline
210
0.0
220
0.0
230
1.0
 70
     8
 71
     3
 72
    18
 73
    14
 74
     0
 42
0.00000001
 43
0.00000001
 40
0.0
 40
0.0
 40
0.0
 40
0.0
 40
0.03125
 40
0.0625
 40
0.125
 40
0.1875
 40
0.25
 40
0.375
 40
0.5
 40
0.625
 40
0.75
 40
0.875
 40
0.923407897347341
 40
0.923407897347341
 40
0.923407897347341
 40
0.923407897347341
 10
14.42003756596107
 20
12.82166581358796
 30
0.0
 10
14.25851963393136
 20
12.79996750260516
 30
0.0
 10
13.92412533183977
 20
12.74051919947321
 30
0.0
 10
13.37158885078022
 20
12.58716588785201
 30
0.0
 10
12.80087366144926
 20
12.33253278981742
 30
0.0
 10
12.25683397312396
 20
11.94223284048569
 30
0.0
 10
11.62822703193174
 20
11.28562300618026
 30
0.0
 10
10.95721871329656
 20
10.15614326902375
 30
0.0
 10
10.2503078060438
 20
8.388734765527444
 30
0.0
 10
9.473906553306872
 20
6.411917707142499
 30
0.0
 10
8.35536203707057
 20
4.397280631454971
 30
0.0
 10
6.902723256271588
 20
2.978006229031562
 30
0.0
 10
5.780636480435017
 20
2.376819012155148
 30
0.0
 10
5.448230672615111
 20
2.229489615808513
 30
0.0
  0
LINE
  5
129
330
1F
100
AcDbEntity
  8
0
  6
Continuous
 62
     7
370
    15
100
AcDbLine
 10
14.420037566
 20
12.8216658136
 30
0.0
 11
15.6061136031
 21
12.9023726193
 31
0.0
  0
ARC
  5
12A
330
1F
100
AcDbEntity
  8
0
  6
Continuous
 62
     7
370
    15
100
AcDbCircle
 10
0.0
 20
0.0
 30
0.0
 40
20.249
100
AcDbArc
 50
5.1993892054
 51
39.5822806357
  0
SPLINE
  5
12B
330
1F
100
AcDbEntity
  8
0
  6
Continuous
 62
     7
370
    15
100
AcDbSpline
210
0.0
220
0.0
230
1.0
 70
     8
 71
     3
 72
    20
 73
    16
 74
     0
 42
0.00000001
 43
0.00000001
 40
0.0585654109753479
 40
0.0585654109753479
 40
0.0585654109753479
 40
0.0585654109753479
 40
0.0596771681784606
 40
0.0674896681784606
 40
0.125
 40
0.25
 40
0.375
 40
0.5
 40
0.625
 40
0.75
 40
0.8125
 40
0.875
 40
0.9375
 40
0.96875
 40
0.9951864371921396
 40
0.9951864371921396
 40
0.9951864371921396
 40
0.9951864371921396
 10
20.16568275055627
 20
1.835004142752091
 30
0.0
 10
20.15831367303234
 20
1.839017106196479
 30
0.0
 10
20.09915089019299
 20
1.87110202804392
 30
0.0
 10
19.65816816442052
 20
2.102288340187386
 30
0.0
 10
18.37270850864446
 20
2.613773800479337
 30
0.0
 10
16.31160409040863
 20
2.744074953710078
 30
0.0
 10
14.11390650810842
 20
2.180566354325439
 30
0.0
 10
12.1633553221368
 20
1.373491483952394
 30
0.0
 10
10.37742301103004
 20
0.6356137751103318
 30
0.0
 10
9.036483995123469
 20
0.2958535295382533
 30
0.0
 10
8.048652784018902
 20
0.2601813910515152
 30
0.0
 10
7.3235515344001
 20
0.3598219366949456
 30
0.0
 10
6.690292747189146
 20
0.574953439269271
 30
0.0
 10
6.175501551495413
 20
0.8365522709190762
 30
0.0
 10
5.90508445661759
 20
1.004632224630766
 30
0.0
 10
5.785979459199565
 20
1.084565860952141
 30
0.0
  0
ARC
  5
12C
330
1F
100
AcDbEntity
  8
0
  6
Continuous
 62
     7
370
    15
100
AcDbCircle
 10
0.0
 20
0.0
 30
0.0
 40
5.886751345948129
100
AcDbArc
 50
10.616734803
 51
22.25504103
  0
SPLINE
  5
12D
330
1F
100
AcDbEntity
  8
0
  6
Continuous
 62
     7
370
    15
100
AcDbSpline
210
0.0
220
0.0
230
1.0
 70
     8
 71
     3
 72
    18
 73
    14
 74
     0
 42
0.00000001
 43
0.00000001
 40
0.0
 40
0.0
 40
0.0
 40
0.0
 40
0.03125
 40
0.0625
 40
0.125
 40
0.1875
 40
0.25
 40
0.375
 40
0.5
 40
0.625
 40
0.75
 40
0.875
 40
0.9190257216055205
 40
0.9190257216055205
 40
0.9190257216055205
 40
0.9190257216055205
 10
-12.82166581358797
 20
14.42003756596106
 30
0.0
 10
-12.80258202705184
 20
14.25818989635132
 30
0.0
 10
-12.74854853328009
 20
13.92287805407997
 30
0.0
 10
-12.60414958955939
 20
13.36793414147329
 30
0.0
 10
-12.35877804373172
 20
12.79317623900836
 30
0.0
 10
-11.97732604993018
 20
12.24289666520402
 30
0.0
 10
-11.33096641026179
 20
11.60375475824643
 30
0.0
 10
-10.21248430469107
 20
10.91457087868827
 30
0.0
 10
-8.456737365962814
 20
10.17917402244645
 30
0.0
 10
-6.492732884084297
 20
9.370909843644574
 30
0.0
 10
-4.496445664597887
 20
8.219935595951643
 30
0.0
 10
-3.121340117751469
 20
6.766204061323961
 30
0.0
 10
-2.547490328187514
 20
5.669897550584071
 30
0.0
 10
-2.415001046406238
 20
5.368576287515981
 30
0.0
  0
LINE
  5
12E
330
1F
100
AcDbEntity
  8
0
  6
Continuous
 62
     7
370
    15
100
AcDbLine
 10
-12.8216658136
 20
14.420037566
 30
0.0
 11
-12.9023726193
 21
15.6061136031
 31
0.0
  0
ARC
  5
12F
330
1F
100
AcDbEntity
  8
0
  6
Continuous
 62
     7
370
    15
100
AcDbCircle
 10
0.0
 20
0.0
 30
0.0
 40
20.249
100
AcDbArc
 50
95.1993892054
 51
129.5822806357
  0
SPLINE
  5
130
330
1F
100
AcDbEntity
  8
0
  6
Continuous
 62
     7
370
    15
100
AcDbSpline
210
0.0
220
0.0
230
1.0
 70
     8
 71
     3
 72
    20
 73
    16
 74
     0
 42
0.00000001
 43
0.00000001
 40
0.0585654109753482
 40
0.0585654109753482
 40
0.0585654109753482
 40
0.0585654109753482
 40
0.0596771681784606
 40
0.0674896681784606
 40
0.125
 40
0.25
 40
0.375
 40
0.5
 40
0.625
 40
0.75
 40
0.8125
 40
0.875
 40
0.9375
 40
0.96875
 40
0.9951864371921396
 40
0.9951864371921396
 40
0.9951864371921396
 40
0.9951864371921396
 10
-1.835004142752189
 20
20.16568275055626
 30
0.0
 10
-1.839017106196576
 20
20.15831367303234
 30
0.0
 10
-1.871102028044017
 20
20.09915089019298
 30
0.0
 10
-2.102288340187479
 20
19.65816816442051
 30
0.0
 10
-2.613773800479419
 20
18.37270850864445
 30
0.0
 10
-2.744074953710148
 20
16.31160409040862
 30
0.0
 10
-2.180566354325495
 20
14.11390650810842
 30
0.0
 10
-1.373491483952436
 20
12.16335532213679
 30
0.0
 10
-0.6356137751103617
 20
10.37742301103005
 30
0.0
 10
-0.2958535295382743
 20
9.036483995123472
 30
0.0
 10
-0.2601813910515297
 20
8.048652784018905
 30
0.0
 10
-0.3598219366949552
 20
7.323551534400106
 30
0.0
 10
-0.5749534392692764
 20
6.690292747189149
 30
0.0
 10
-0.8365522709190781
 20
6.175501551495414
 30
0.0
 10
-1.004632224630766
 20
5.90508445661759
 30
0.0
 10
-1.08456586095214
 20
5.785979459199565
 30
0.0
  0
ARC
  5
131
330
1F
100
AcDbEntity
  8
0
  6
Continuous
 62
     7
370
    15
100
AcDbCircle
 10
0.0
 20
0.0
 30
0.0
 40
5.886751345948129
100
AcDbArc
 50
100.616734803
 51
114.2201274244
  0
ENDSEC
  0
SECTION
  2
OBJECTS
  0
DICTIONARY
  5
C
330
0
100
AcDbDictionary
281
     1
  3
ACAD_GROUP
350
D
  3
ACAD_LAYOUT
350
1A
  3
ACAD_MLEADERSTYLE
350
134
  3
ACAD_MLINESTYLE
350
17
  3
ACAD_PLOTSETTINGS
350
19
  3
ACAD_PLOTSTYLENAME
350
E
  3
ACAD_VISUALSTYLE
350
2A
  3
AcDbVariableDictionary
350
132
  0
DICTIONARY
  5
D
102
{ACAD_REACTORS
330
C
102
}
330
C
100
AcDbDictionary
281
     1
  0
DICTIONARY
  5
1A
102
{ACAD_REACTORS
330
C
102
}
330
C
100
AcDbDictionary
281
     1
  3
Layout1
350
1E
  3
Layout2
350
26
  3
Model
350
22
  0
DICTIONARY
  5
134
102
{ACAD_REACTORS
330
C
102
}
330
C
100
AcDbDictionary
281
     1
  0
DICTIONARY
  5
17
102
{ACAD_REACTORS
330
C
102
}
330
C
100
AcDbDictionary
281
     1
  3
Standard
350
18
  0
DICTIONARY
  5
19
102
{ACAD_REACTORS
330
C
102
}
330
C
100
AcDbDictionary
281
     1
  0
ACDBDICTIONARYWDFLT
  5
E
102
{ACAD_REACTORS
330
C
102
}
330
C
100
AcDbDictionary
281
     1
  3
Normal
350
F
100
AcDbDictionaryWithDefault
340
F
  0
DICTIONARY
  5
2A
102
{ACAD_REACTORS
330
C
102
}
330
C
100
AcDbDictionary
281
     1
  3
2dWireframe
350
2F
  3
3D Hidden
350
31
  3
3dWireframe
350
30
  3
Basic
350
32
  3
Brighten
350
36
  3
ColorChange
350
3A
  3
Conceptual
350
34
  3
Dim
350
35
  3
Facepattern
350
39
  3
Flat
350
2B
  3
FlatWithEdges
350
2C
  3
Gouraud
350
2D
  3
GouraudWithEdges
350
2E
  3
Linepattern
350
38
  3
Realistic
350
33
  3
Thicken
350
37
  0
DICTIONARY
  5
132
102
{ACAD_REACTORS
330
C
102
}
330
C
100
AcDbDictionary
281
     1
  3
DIMASSOC
350
137
  3
HIDETEXT
350
138
  3
PSOLHEIGHT
350
136
  3
PSOLWIDTH
350
135
  0
LAYOUT
  5
1E
102
{ACAD_REACTORS
330
1A
102
}
330
1A
100
AcDbPlotSettings
  1

  2
none_device
  4

  6

 40
0.0
 41
0.0
 42
0.0
 43
0.0
 44
0.0
 45
0.0
 46
0.0
 47
0.0
 48
0.0
 49
0.0
140
0.0
141
0.0
142
1.0
143
1.0
 70
   688
 72
     0
 73
     0
 74
     5
  7

 75
    16
147
1.0
148
0.0
149
0.0
100
AcDbLayout
  1
Layout1
 70
     1
 71
     1
 10
0.0
 20
0.0
 11
420.0
 21
297.0
 12
0.0
 22
0.0
 32
0.0
 14
1.0000000000E+20
 24
1.0000000000E+20
 34
1.0000000000E+20
 15
-1.0000000000E+20
 25
-1.0000000000E+20
 35
-1.0000000000E+20
146
0.0
 13
0.0
 23
0.0
 33
0.0
 16
1.0
 26
0.0
 36
0.0
 17
0.0
 27
1.0
 37
0.0
 76
     0
330
1B
  0
LAYOUT
  5
26
102
{ACAD_REACTORS
330
1A
102
}
330
1A
100
AcDbPlotSettings
  1

  2
none_device
  4

  6

 40
0.0
 41
0.0
 42
0.0
 43
0.0
 44
0.0
 45
0.0
 46
0.0
 47
0.0
 48
0.0
 49
0.0
140
0.0
141
0.0
142
1.0
143
1.0
 70
   688
 72
     0
 73
     0
 74
     5
  7

 75
    16
147
1.0
148
0.0
149
0.0
100
AcDbLayout
  1
Layout2
 70
     1
 71
     2
 10
0.0
 20
0.0
 11
0.0
 21
0.0
 12
0.0
 22
0.0
 32
0.0
 14
0.0
 24
0.0
 34
0.0
 15
0.0
 25
0.0
 35
0.0
146
0.0
 13
0.0
 23
0.0
 33
0.0
 16
1.0
 26
0.0
 36
0.0
 17
0.0
 27
1.0
 37
0.0
 76
     0
330
23
  0
LAYOUT
  5
22
102
{ACAD_REACTORS
330
1A
102
}
330
1A
100
AcDbPlotSettings
  1

  2
none_device
  4
ANSI_A_(11.00_x_8.50_Inches)
  6

 40
6.35
 41
19.05
 42
6.35000508
 43
19.05000254
 44
279.4
 45
215.9
 46
133.34999746
 47
88.9714653271
 48
0.0
 49
0.0
140
0.0
141
0.0
142
0.165110339
143
1.0
 70
  1696
 72
     0
 73
     0
 74
     0
  7

 75
     0
147
0.0179189148
148
0.0
149
0.0
100
AcDbLayout
  1
Model
 70
     1
 71
     0
 10
0.0
 20
0.0
 11
420.0
 21
297.0
 12
0.0
 22
0.0
 32
0.0
 14
-25.4950767424
 24
-25.5
 34
0.0
 15
25.4950767424
 25
25.4659179968
 35
0.0
146
0.0
 13
0.0
 23
0.0
 33
0.0
 16
1.0
 26
0.0
 36
0.0
 17
0.0
 27
1.0
 37
0.0
 76
     0
330
1F
331
29
  0
MLINESTYLE
  5
18
102
{ACAD_REACTORS
330
17
102
}
330
17
100
AcDbMlineStyle
  2
Standard
 70
     0
  3

 62
   256
 51
90.0
 52
90.0
 71
     2
 49
0.5
 62
   256
  6
BYLAYER
 49
-0.5
 62
   256
  6
BYLAYER
  0
ACDBPLACEHOLDER
  5
F
102
{ACAD_REACTORS
330
E
102
}
330
E
  0
VISUALSTYLE
  5
2F
102
{ACAD_REACTORS
330
2A
102
}
330
2A
100
AcDbVisualStyle
  2
2dWireframe
 70
     4
 71
     0
 72
     2
 73
     0
 90
        0
 40
-0.6
 41
-30.0
 62
     5
 63
     7
 74
     1
 91
        4
 64
     7
 65
   257
 75
     1
175
     1
 42
1.0
 92
        0
 66
   257
 43
1.0
 76
     1
 77
     6
 78
     2
 67
     7
 79
     5
170
     0
171
     0
290
     0
174
     0
 93
        1
 44
0.0
173
     0
291
     0
 45
0.0
1001
ACAD
1000
AcDbSavedByObjectVersion
1070
     0
  0
VISUALSTYLE
  5
31
102
{ACAD_REACTORS
330
2A
102
}
330
2A
100
AcDbVisualStyle
  2
3D Hidden
 70
     6
 71
     1
 72
     2
 73
     2
 90
        0
 40
-0.6
 41
-30.0
 62
     5
 63
     7
 74
     2
 91
        2
 64
     7
 65
   257
 75
     2
175
     1
 42
40.0
 92
        0
 66
   257
 43
1.0
 76
     1
 77
     6
 78
     2
 67
     7
 79
     3
170
     0
171
     0
290
     0
174
     0
 93
        1
 44
0.0
173
     0
291
     0
 45
0.0
1001
ACAD
1000
AcDbSavedByObjectVersion
1070
     0
  0
VISUALSTYLE
  5
30
102
{ACAD_REACTORS
330
2A
102
}
330
2A
100
AcDbVisualStyle
  2
3dWireframe
 70
     5
 71
     0
 72
     2
 73
     0
 90
        0
 40
-0.6
 41
-30.0
 62
     5
 63
     7
 74
     1
 91
        4
 64
     7
 65
   257
 75
     1
175
     1
 42
1.0
 92
        0
 66
   257
 43
1.0
 76
     1
 77
     6
 78
     2
 67
     7
 79
     5
170
     0
171
     0
290
     0
174
     0
 93
        1
 44
0.0
173
     0
291
     0
 45
0.0
1001
ACAD
1000
AcDbSavedByObjectVersion
1070
     0
  0
VISUALSTYLE
  5
32
102
{ACAD_REACTORS
330
2A
102
}
330
2A
100
AcDbVisualStyle
  2
Basic
 70
     7
 71
     1
 72
     0
 73
     1
 90
        0
 40
-0.6
 41
-30.0
 62
     5
 63
     7
 74
     0
 91
        4
 64
     7
 65
   257
 75
     1
175
     1
 42
1.0
 92
        8
 66
     7
 43
1.0
 76
     1
 77
     6
 78
     2
 67
     7
 79
     5
170
     0
171
     0
290
     0
174
     0
 93
        1
 44
0.0
173
     0
291
     1
 45
0.0
1001
ACAD
1000
AcDbSavedByObjectVersion
1070
     0
  0
VISUALSTYLE
  5
36
102
{ACAD_REACTORS
330
2A
102
}
330
2A
100
AcDbVisualStyle
  2
Brighten
 70
    12
 71
     2
 72
     2
 73
     0
 90
        0
 40
-0.6
 41
-30.0
 62
     5
 63
     7
 74
     1
 91
        4
 64
     7
 65
   257
 75
     1
175
     1
 42
1.0
 92
        8
 66
     7
 43
1.0
 76
     1
 77
     6
 78
     2
 67
     7
 79
     5
170
     0
171
     0
290
     0
174
     0
 93
        1
 44
50.0
173
     0
291
     1
 45
0.0
1001
ACAD
1000
AcDbSavedByObjectVersion
1070
     0
  0
VISUALSTYLE
  5
3A
102
{ACAD_REACTORS
330
2A
102
}
330
2A
100
AcDbVisualStyle
  2
ColorChange
 70
    16
 71
     2
 72
     2
 73
     3
 90
        0
 40
-0.6
 41
-30.0
 62
     5
 63
     8
 74
     1
 91
        4
 64
     7
 65
   257
 75
     1
175
     1
 42
1.0
 92
        8
 66
     8
 43
1.0
 76
     1
 77
     6
 78
     2
 67
     7
 79
     5
170
     0
171
     0
290
     0
174
     0
 93
        1
 44
0.0
173
     0
291
     1
 45
0.0
1001
ACAD
1000
AcDbSavedByObjectVersion
1070
     0
  0
VISUALSTYLE
  5
34
102
{ACAD_REACTORS
330
2A
102
}
330
2A
100
AcDbVisualStyle
  2
Conceptual
 70
     9
 71
     3
 72
     2
 73
     0
 90
        0
 40
-0.6
 41
-30.0
 62
     5
 63
     7
 74
     2
 91
        2
 64
     7
 65
   257
 75
     1
175
     1
 42
40.0
 92
        8
 66
     7
 43
1.0
 76
     1
 77
     6
 78
     2
 67
     7
 79
     3
170
     0
171
     0
290
     0
174
     0
 93
        1
 44
0.0
173
     0
291
     0
 45
0.0
1001
ACAD
1000
AcDbSavedByObjectVersion
1070
     0
  0
VISUALSTYLE
  5
35
102
{ACAD_REACTORS
330
2A
102
}
330
2A
100
AcDbVisualStyle
  2
Dim
 70
    11
 71
     2
 72
     2
 73
     0
 90
        0
 40
-0.6
 41
-30.0
 62
     5
 63
     7
 74
     1
 91
        4
 64
     7
 65
   257
 75
     1
175
     1
 42
1.0
 92
        8
 66
     7
 43
1.0
 76
     1
 77
     6
 78
     2
 67
     7
 79
     5
170
     0
171
     0
290
     0
174
     0
 93
        1
 44
-50.0
173
     0
291
     1
 45
0.0
1001
ACAD
1000
AcDbSavedByObjectVersion
1070
     0
  0
VISUALSTYLE
  5
39
102
{ACAD_REACTORS
330
2A
102
}
330
2A
100
AcDbVisualStyle
  2
Facepattern
 70
    15
 71
     2
 72
     2
 73
     0
 90
        0
 40
-0.6
 41
-30.0
 62
     5
 63
     7
 74
     1
 91
        4
 64
     7
 65
   257
 75
     1
175
     1
 42
1.0
 92
        8
 66
     7
 43
1.0
 76
     1
 77
     6
 78
     2
 67
     7
 79
     5
170
     0
171
     0
290
     0
174
     0
 93
        1
 44
0.0
173
     0
291
     1
 45
0.0
1001
ACAD
1000
AcDbSavedByObjectVersion
1070
     0
  0
VISUALSTYLE
  5
2B
102
{ACAD_REACTORS
330
2A
102
}
330
2A
100
AcDbVisualStyle
  2
Flat
 70
     0
 71
     2
 72
     1
 73
     1
 90
        2
 40
-0.6
 41
30.0
 62
     5
 63
     7
 74
     0
 91
        4
 64
     7
 65
   257
 75
     1
175
     1
 42
1.0
 92
        8
 66
     7
 43
1.0
 76
     1
 77
     6
 78
     2
 67
     7
 79
     5
170
     0
171
     0
290
     0
174
     0
 93
       13
 44
0.0
173
     0
291
     1
 45
0.0
1001
ACAD
1000
AcDbSavedByObjectVersion
1070
     0
  0
VISUALSTYLE
  5
2C
102
{ACAD_REACTORS
330
2A
102
}
330
2A
100
AcDbVisualStyle
  2
FlatWithEdges
 70
     1
 71
     2
 72
     1
 73
     1
 90
        2
 40
-0.6
 41
30.0
 62
     5
 63
     7
 74
     1
 91
        4
 64
     7
 65
   257
 75
     1
175
     1
 42
1.0
 92
        0
 66
   257
 43
1.0
 76
     1
 77
     6
 78
     2
 67
     7
 79
     5
170
     0
171
     0
290
     0
174
     0
 93
       13
 44
0.0
173
     0
291
     1
 45
0.0
1001
ACAD
1000
AcDbSavedByObjectVersion
1070
     0
  0
VISUALSTYLE
  5
2D
102
{ACAD_REACTORS
330
2A
102
}
330
2A
100
AcDbVisualStyle
  2
Gouraud
 70
     2
 71
     2
 72
     2
 73
     1
 90
        2
 40
-0.6
 41
30.0
 62
     5
 63
     7
 74
     0
 91
        4
 64
     7
 65
   257
 75
     1
175
     1
 42
1.0
 92
        0
 66
     7
 43
1.0
 76
     1
 77
     6
 78
     2
 67
     7
 79
     5
170
     0
171
     0
290
     0
174
     0
 93
       13
 44
0.0
173
     0
291
     1
 45
0.0
1001
ACAD
1000
AcDbSavedByObjectVersion
1070
     0
  0
VISUALSTYLE
  5
2E
102
{ACAD_REACTORS
330
2A
102
}
330
2A
100
AcDbVisualStyle
  2
GouraudWithEdges
 70
     3
 71
     2
 72
     2
 73
     1
 90
        2
 40
-0.6
 41
30.0
 62
     5
 63
     7
 74
     1
 91
        4
 64
     7
 65
   257
 75
     1
175
     1
 42
1.0
 92
        0
 66
   257
 43
1.0
 76
     1
 77
     6
 78
     2
 67
     7
 79
     5
170
     0
171
     0
290
     0
174
     0
 93
       13
 44
0.0
173
     0
291
     1
 45
0.0
1001
ACAD
1000
AcDbSavedByObjectVersion
1070
     0
  0
VISUALSTYLE
  5
38
102
{ACAD_REACTORS
330
2A
102
}
330
2A
100
AcDbVisualStyle
  2
Linepattern
 70
    14
 71
     2
 72
     2
 73
     0
 90
        0
 40
-0.6
 41
-30.0
 62
     5
 63
     7
 74
     1
 91
        4
 64
     7
 65
   257
 75
     7
175
     7
 42
1.0
 92
        8
 66
     7
 43
1.0
 76
     1
 77
     6
 78
     2
 67
     7
 79
     5
170
     0
171
     0
290
     0
174
     0
 93
        1
 44
0.0
173
     0
291
     1
 45
0.0
1001
ACAD
1000
AcDbSavedByObjectVersion
1070
     0
  0
VISUALSTYLE
  5
33
102
{ACAD_REACTORS
330
2A
102
}
330
2A
100
AcDbVisualStyle
  2
Realistic
 70
     8
 71
     2
 72
     2
 73
     0
 90
        0
 40
-0.6
 41
-30.0
 62
     5
 63
     7
 74
     1
 91
        0
 64
     7
 65
   257
 75
     1
175
     1
 42
1.0
 92
        8
 66
     8
 43
1.0
 76
     1
 77
     6
 78
     2
 67
     7
 79
     5
170
     0
171
     0
290
     0
174
     0
 93
       13
 44
0.0
173
     0
291
     0
 45
0.0
1001
ACAD
1000
AcDbSavedByObjectVersion
1070
     0
  0
VISUALSTYLE
  5
37
102
{ACAD_REACTORS
330
2A
102
}
330
2A
100
AcDbVisualStyle
  2
Thicken
 70
    13
 71
     2
 72
     2
 73
     0
 90
        0
 40
-0.6
 41
-30.0
 62
     5
 63
     7
 74
     1
 91
        4
 64
     7
 65
   257
 75
     1
175
     1
 42
1.0
 92
       12
 66
     7
 43
1.0
 76
     1
 77
     6
 78
     2
 67
     7
 79
     5
170
     0
171
     0
290
     0
174
     0
 93
        1
 44
0.0
173
     0
291
     1
 45
0.0
1001
ACAD
1000
AcDbSavedByObjectVersion
1070
     0
  0
DICTIONARYVAR
  5
137
102
{ACAD_REACTORS
330
132
102
}
330
132
100
DictionaryVariables
280
     0
  1
2
  0
DICTIONARYVAR
  5
138
102
{ACAD_REACTORS
330
132
102
}
330
132
100
DictionaryVariables
280
     0
  1
1
  0
DICTIONARYVAR
  5
136
102
{ACAD_REACTORS
330
132
102
}
330
132
100
DictionaryVariables
280
     0
  1
80.000000
  0
DICTIONARYVAR
  5
135
102
{ACAD_REACTORS
330
132
102
}
330
132
100
DictionaryVariables
280
     0
  1
5.000000
  0
ENDSEC
  0
EOF
