<?xml version="1.0" encoding="UTF-8" standalone="no"?>
<svg
   xmlns:dc="http://purl.org/dc/elements/1.1/"
   xmlns:cc="http://creativecommons.org/ns#"
   xmlns:rdf="http://www.w3.org/1999/02/22-rdf-syntax-ns#"
   xmlns:svg="http://www.w3.org/2000/svg"
   xmlns="http://www.w3.org/2000/svg"
   xmlns:sodipodi="http://sodipodi.sourceforge.net/DTD/sodipodi-0.dtd"
   xmlns:inkscape="http://www.inkscape.org/namespaces/inkscape"
   id="svg2985"
   version="1.1"
   inkscape:version="0.48.1 "
   width="6100"
   height="4600"
   sodipodi:docname="map">
  <metadata
     id="metadata3193">
    <rdf:RDF>
      <cc:Work
         rdf:about="">
        <dc:format>image/svg+xml</dc:format>
        <dc:type
           rdf:resource="http://purl.org/dc/dcmitype/StillImage" />
        <dc:title></dc:title>
      </cc:Work>
    </rdf:RDF>
  </metadata>
  <sodipodi:namedview
     pagecolor="#ffffff"
     bordercolor="#666666"
     borderopacity="1"
     objecttolerance="10"
     gridtolerance="10"
     guidetolerance="10"
     inkscape:pageopacity="0"
     inkscape:pageshadow="2"
     inkscape:window-width="1920"
     inkscape:window-height="1018"
     id="namedview3191"
     showgrid="true"
     units="px"
     fit-margin-top="0"
     fit-margin-left="0"
     fit-margin-right="0"
     fit-margin-bottom="0"
     width="6100px"
     inkscape:zoom="0.5"
     inkscape:cx="2116.4321"
     inkscape:cy="1234.3201"
     inkscape:window-x="0"
     inkscape:window-y="0"
     inkscape:window-maximized="1"
     inkscape:current-layer="g2997" />
  <desc
     id="desc2987">C:\Users\Kasutaja\Documents\kalle\misc. vidinad\map.DXF - scale = 1.000000</desc>
  <defs
     id="defs2989">
    <marker
       refY="0"
       refX="0"
       style="overflow:visible"
       id="DistanceX"
       orient="auto">
      <path
         style="stroke:#000000;stroke-width:0.5"
         d="M 3,-3 -3,3 M 0,-5 0,5"
         id="path2992"
         inkscape:connector-curvature="0" />
    </marker>
    <symbol
       id="*Model_Space" />
    <symbol
       id="*Paper_Space" />
    <symbol
       id="*Paper_Space0" />
  </defs>
  <g
     inkscape:label="0"
     inkscape:groupmode="layer"
     id="g2997"
     transform="translate(10810.88,-4605.7614)">
    <path
       style="fill:none;stroke:#000000;stroke-width:0.14105543"
       d="m -10010.082,5406.4011 4498.4737,0"
       id="path2999"
       inkscape:connector-curvature="0" />
    <path
       style="fill:none;stroke:#000000;stroke-width:0.14105543"
       d="m -5511.6083,8405.0518 0,-2998.6507"
       id="path3001"
       inkscape:connector-curvature="0" />
    <path
       style="fill:none;stroke:#000000;stroke-width:0.14105543"
       d="m -10010.082,8405.0518 4498.4737,0"
       id="path3003"
       inkscape:connector-curvature="0" />
    <path
       style="fill:none;stroke:#000000;stroke-width:0.14105543"
       d="m -10010.082,8405.0518 0,-2998.6507"
       id="path3005"
       inkscape:connector-curvature="0" />
    <path
       style="fill:none;stroke:#000000;stroke-width:0.14105543"
       d="m -10011.081,5405.4015 4500.4724,0"
       id="path3007"
       inkscape:connector-curvature="0" />
    <path
       style="fill:none;stroke:#000000;stroke-width:0.14105543"
       d="m -10011.081,8406.0514 0,-3000.6499"
       id="path3009"
       inkscape:connector-curvature="0" />
    <path
       style="fill:none;stroke:#000000;stroke-width:0.14105543"
       d="m -10011.081,8406.0514 4500.4724,0"
       id="path3011"
       inkscape:connector-curvature="0" />
    <path
       style="fill:none;stroke:#000000;stroke-width:0.14105543"
       d="m -5510.6086,8406.0514 0,-3000.6499"
       id="path3013"
       inkscape:connector-curvature="0" />
    <path
       style="fill:none;stroke:#000000;stroke-width:0.14105543"
       d="m -9510.2512,6730.8051 a 499.83034,499.7751 0 0 0 -449.8472,-497.27"
       id="path3015"
       inkscape:connector-curvature="0" />
    <path
       style="fill:none;stroke:#000000;stroke-width:0.14105543"
       d="m -9960.0984,6233.5351 0,-777.1565"
       id="path3017"
       inkscape:connector-curvature="0" />
    <path
       style="fill:none;stroke:#000000;stroke-width:0.14105543"
       d="m -9960.0984,5456.3786 2174.2621,0"
       id="path3019"
       inkscape:connector-curvature="0" />
    <path
       style="fill:none;stroke:#000000;stroke-width:0.14105543"
       d="m -7785.8363,6506.688 0,-1050.3094"
       id="path3021"
       inkscape:connector-curvature="0" />
    <path
       style="fill:none;stroke:#000000;stroke-width:0.14105543"
       d="m -7785.8363,6506.688 a 399.86428,399.82009 0 0 0 0,798.0768"
       id="path3023"
       inkscape:connector-curvature="0" />
    <path
       style="fill:none;stroke:#000000;stroke-width:0.14105543"
       d="m -7785.8363,8355.0742 0,-1050.3094"
       id="path3025"
       inkscape:connector-curvature="0" />
    <path
       style="fill:none;stroke:#000000;stroke-width:0.14105543"
       d="m -9960.0984,8355.0742 2174.2621,0"
       id="path3027"
       inkscape:connector-curvature="0" />
    <path
       style="fill:none;stroke:#000000;stroke-width:0.14105543"
       d="m -9960.0984,8355.0742 0,-777.1565"
       id="path3029"
       inkscape:connector-curvature="0" />
    <path
       style="fill:none;stroke:#000000;stroke-width:0.14105543"
       d="m -9960.0984,7577.9177 a 499.83034,499.7751 0 0 0 449.8472,-497.27"
       id="path3031"
       inkscape:connector-curvature="0" />
    <path
       style="fill:none;stroke:#000000;stroke-width:0.14105543"
       d="m -9510.2512,7080.6477 0,-349.8426"
       id="path3033"
       inkscape:connector-curvature="0" />
    <path
       style="fill:none;stroke:#000000;stroke-width:0.14105543"
       d="m -9511.2508,6730.8051 a 498.83068,498.77556 0 0 0 -449.8473,-496.3649"
       id="path3035"
       inkscape:connector-curvature="0" />
    <path
       style="fill:none;stroke:#000000;stroke-width:0.14105543"
       d="m -9511.2508,7080.6477 0,-349.8426"
       id="path3037"
       inkscape:connector-curvature="0" />
    <path
       style="fill:none;stroke:#000000;stroke-width:0.14105543"
       d="m -9961.0981,7577.0127 a 498.83068,498.77556 0 0 0 449.8473,-496.365"
       id="path3039"
       inkscape:connector-curvature="0" />
    <path
       style="fill:none;stroke:#000000;stroke-width:0.14105543"
       d="m -9961.0981,8356.0739 0,-779.0612"
       id="path3041"
       inkscape:connector-curvature="0" />
    <path
       style="fill:none;stroke:#000000;stroke-width:0.14105543"
       d="m -9961.0981,8356.0739 2176.2614,0"
       id="path3043"
       inkscape:connector-curvature="0" />
    <path
       style="fill:none;stroke:#000000;stroke-width:0.14105543"
       d="m -7784.8367,8356.0739 0,-1052.2491"
       id="path3045"
       inkscape:connector-curvature="0" />
    <path
       style="fill:none;stroke:#000000;stroke-width:0.14105543"
       d="m -7784.8367,6507.628 a 398.86462,398.82054 0 0 0 0,796.1968"
       id="path3047"
       inkscape:connector-curvature="0" />
    <path
       style="fill:none;stroke:#000000;stroke-width:0.14105543"
       d="m -7784.8367,6507.628 0,-1052.249"
       id="path3049"
       inkscape:connector-curvature="0" />
    <path
       style="fill:none;stroke:#000000;stroke-width:0.14105543"
       d="m -9961.0981,5455.379 2176.2614,0"
       id="path3051"
       inkscape:connector-curvature="0" />
    <path
       style="fill:none;stroke:#000000;stroke-width:0.14105543"
       d="m -9961.0981,6234.4402 0,-779.0612"
       id="path3053"
       inkscape:connector-curvature="0" />
    <path
       style="fill:none;stroke:#000000;stroke-width:0.14105543"
       d="m -9559.2344,7080.6477 0,-349.8426"
       id="path3055"
       inkscape:connector-curvature="0" />
    <path
       style="fill:none;stroke:#000000;stroke-width:0.14105543"
       d="m -9559.2344,6730.8051 a 450.84698,450.79716 0 0 0 -401.8637,-448.1285"
       id="path3057"
       inkscape:connector-curvature="0" />
    <path
       style="fill:none;stroke:#000000;stroke-width:0.14105543"
       d="m -9961.0981,7528.7763 0,-1246.0997"
       id="path3059"
       inkscape:connector-curvature="0" />
    <path
       style="fill:none;stroke:#000000;stroke-width:0.14105543"
       d="m -9961.0981,7528.7763 a 450.84698,450.79716 0 0 0 401.8637,-448.1286"
       id="path3061"
       inkscape:connector-curvature="0" />
    <path
       style="fill:none;stroke:#000000;stroke-width:0.14105543"
       d="m -9560.2342,6730.8051 a 449.84733,449.79761 0 0 0 -399.8642,-447.0124"
       id="path3063"
       inkscape:connector-curvature="0" />
    <path
       style="fill:none;stroke:#000000;stroke-width:0.14105543"
       d="m -9560.2342,7080.6477 0,-349.8426"
       id="path3065"
       inkscape:connector-curvature="0" />
    <path
       style="fill:none;stroke:#000000;stroke-width:0.14105543"
       d="m -9960.0984,7527.6601 a 449.84733,449.79761 0 0 0 399.8642,-447.0124"
       id="path3067"
       inkscape:connector-curvature="0" />
    <path
       style="fill:none;stroke:#000000;stroke-width:0.14105543"
       d="m -9960.0984,7527.6601 0,-1243.8674"
       id="path3069"
       inkscape:connector-curvature="0" />
    <path
       style="fill:none;stroke:#000000;stroke-width:0.14105543"
       d="m -7784.8367,7255.7475 0,-700.0422"
       id="path3071"
       inkscape:connector-curvature="0" />
    <path
       style="fill:none;stroke:#000000;stroke-width:0.14105543"
       d="m -7784.8367,6555.7053 a 350.88091,350.84214 0 0 0 0,700.0422"
       id="path3073"
       inkscape:connector-curvature="0" />
    <path
       style="fill:none;stroke:#000000;stroke-width:0.14105543"
       d="m -7785.8363,6556.7774 a 349.88126,349.84258 0 0 0 0,697.8981"
       id="path3075"
       inkscape:connector-curvature="0" />
    <path
       style="fill:none;stroke:#000000;stroke-width:0.14105543"
       d="m -7785.8363,7254.6755 0,-697.8981"
       id="path3077"
       inkscape:connector-curvature="0" />
    <path
       style="fill:none;stroke:#000000;stroke-width:0.14105543"
       d="m -7735.8534,7254.6755 0,-697.8981"
       id="path3079"
       inkscape:connector-curvature="0" />
    <path
       style="fill:none;stroke:#000000;stroke-width:0.14105543"
       d="m -7735.8534,7254.6755 a 349.88126,349.84258 0 0 0 0,-697.8981"
       id="path3081"
       inkscape:connector-curvature="0" />
    <path
       style="fill:none;stroke:#000000;stroke-width:0.14105543"
       d="m -7736.8531,7255.7475 0,-700.0422"
       id="path3083"
       inkscape:connector-curvature="0" />
    <path
       style="fill:none;stroke:#000000;stroke-width:0.14105543"
       d="m -7736.8531,7255.7475 a 350.88091,350.84214 0 0 0 0,-700.0422"
       id="path3085"
       inkscape:connector-curvature="0" />
    <path
       style="fill:none;stroke:#000000;stroke-width:0.14105543"
       d="m -5560.5917,8356.0739 0,-779.0612"
       id="path3087"
       inkscape:connector-curvature="0" />
    <path
       style="fill:none;stroke:#000000;stroke-width:0.14105543"
       d="m -6010.4389,7080.6477 a 498.83068,498.77556 0 0 0 449.8472,496.365"
       id="path3089"
       inkscape:connector-curvature="0" />
    <path
       style="fill:none;stroke:#000000;stroke-width:0.14105543"
       d="m -6010.4389,7080.6477 0,-349.8426"
       id="path3091"
       inkscape:connector-curvature="0" />
    <path
       style="fill:none;stroke:#000000;stroke-width:0.14105543"
       d="m -5560.5917,6234.4402 a 498.83068,498.77556 0 0 0 -449.8472,496.3649"
       id="path3093"
       inkscape:connector-curvature="0" />
    <path
       style="fill:none;stroke:#000000;stroke-width:0.14105543"
       d="m -5560.5917,6234.4402 0,-779.0612"
       id="path3095"
       inkscape:connector-curvature="0" />
    <path
       style="fill:none;stroke:#000000;stroke-width:0.14105543"
       d="m -7736.8531,5455.379 2176.2614,0"
       id="path3097"
       inkscape:connector-curvature="0" />
    <path
       style="fill:none;stroke:#000000;stroke-width:0.14105543"
       d="m -7736.8531,6507.628 0,-1052.249"
       id="path3099"
       inkscape:connector-curvature="0" />
    <path
       style="fill:none;stroke:#000000;stroke-width:0.14105543"
       d="m -7736.8531,7303.8248 a 398.86462,398.82054 0 0 0 0,-796.1968"
       id="path3101"
       inkscape:connector-curvature="0" />
    <path
       style="fill:none;stroke:#000000;stroke-width:0.14105543"
       d="m -7736.8531,8356.0739 0,-1052.2491"
       id="path3103"
       inkscape:connector-curvature="0" />
    <path
       style="fill:none;stroke:#000000;stroke-width:0.14105543"
       d="m -7736.8531,8356.0739 2176.2614,0"
       id="path3105"
       inkscape:connector-curvature="0" />
    <path
       style="fill:none;stroke:#000000;stroke-width:0.14105543"
       d="m -6011.4386,7080.6477 a 499.83034,499.7751 0 0 0 449.8473,497.27"
       id="path3107"
       inkscape:connector-curvature="0" />
    <path
       style="fill:none;stroke:#000000;stroke-width:0.14105543"
       d="m -5561.5913,8355.0742 0,-777.1565"
       id="path3109"
       inkscape:connector-curvature="0" />
    <path
       style="fill:none;stroke:#000000;stroke-width:0.14105543"
       d="m -7735.8534,8355.0742 2174.2621,0"
       id="path3111"
       inkscape:connector-curvature="0" />
    <path
       style="fill:none;stroke:#000000;stroke-width:0.14105543"
       d="m -7735.8534,8355.0742 0,-1050.3094"
       id="path3113"
       inkscape:connector-curvature="0" />
    <path
       style="fill:none;stroke:#000000;stroke-width:0.14105543"
       d="m -7735.8534,7304.7648 a 399.86428,399.82009 0 0 0 0,-798.0768"
       id="path3115"
       inkscape:connector-curvature="0" />
    <path
       style="fill:none;stroke:#000000;stroke-width:0.14105543"
       d="m -7735.8534,6506.688 0,-1050.3094"
       id="path3117"
       inkscape:connector-curvature="0" />
    <path
       style="fill:none;stroke:#000000;stroke-width:0.14105543"
       d="m -7735.8534,5456.3786 2174.2621,0"
       id="path3119"
       inkscape:connector-curvature="0" />
    <path
       style="fill:none;stroke:#000000;stroke-width:0.14105543"
       d="m -5561.5913,6233.5351 0,-777.1565"
       id="path3121"
       inkscape:connector-curvature="0" />
    <path
       style="fill:none;stroke:#000000;stroke-width:0.14105543"
       d="m -5561.5913,6233.5351 a 499.83034,499.7751 0 0 0 -449.8473,497.27"
       id="path3123"
       inkscape:connector-curvature="0" />
    <path
       style="fill:none;stroke:#000000;stroke-width:0.14105543"
       d="m -6011.4386,7080.6477 0,-349.8426"
       id="path3125"
       inkscape:connector-curvature="0" />
    <path
       style="fill:none;stroke:#000000;stroke-width:0.14105543"
       d="m -5561.5913,6283.7927 a 449.84733,449.79761 0 0 0 -399.8643,447.0124"
       id="path3127"
       inkscape:connector-curvature="0" />
    <path
       style="fill:none;stroke:#000000;stroke-width:0.14105543"
       d="m -5561.5913,7527.6601 0,-1243.8674"
       id="path3129"
       inkscape:connector-curvature="0" />
    <path
       style="fill:none;stroke:#000000;stroke-width:0.14105543"
       d="m -5961.4556,7080.6477 a 449.84733,449.79761 0 0 0 399.8643,447.0124"
       id="path3131"
       inkscape:connector-curvature="0" />
    <path
       style="fill:none;stroke:#000000;stroke-width:0.14105543"
       d="m -5961.4556,7080.6477 0,-349.8426"
       id="path3133"
       inkscape:connector-curvature="0" />
    <path
       style="fill:none;stroke:#000000;stroke-width:0.14105543"
       d="m -5560.5917,6282.6766 a 450.84698,450.79716 0 0 0 -401.8636,448.1285"
       id="path3135"
       inkscape:connector-curvature="0" />
    <path
       style="fill:none;stroke:#000000;stroke-width:0.14105543"
       d="m -5962.4553,7080.6477 0,-349.8426"
       id="path3137"
       inkscape:connector-curvature="0" />
    <path
       style="fill:none;stroke:#000000;stroke-width:0.14105543"
       d="m -5962.4553,7080.6477 a 450.84698,450.79716 0 0 0 401.8636,448.1286"
       id="path3139"
       inkscape:connector-curvature="0" />
    <path
       style="fill:none;stroke:#000000;stroke-width:0.14105543"
       d="m -5560.5917,7528.7763 0,-1246.0997"
       id="path3141"
       inkscape:connector-curvature="0" />
    <path
       style="fill:none;stroke:#000000;stroke-width:0.14105543"
       d="m -10359.963,5056.5585 5198.2359,0"
       id="path3143"
       inkscape:connector-curvature="0" />
    <path
       style="fill:none;stroke:#000000;stroke-width:0.14105543"
       d="m -5161.7271,8754.8944 0,-3698.3359"
       id="path3145"
       inkscape:connector-curvature="0" />
    <path
       style="fill:none;stroke:#000000;stroke-width:0.14105543"
       d="m -10359.963,8754.8944 5198.2359,0"
       id="path3147"
       inkscape:connector-curvature="0" />
    <path
       style="fill:none;stroke:#000000;stroke-width:0.14105543"
       d="m -10359.963,8754.8944 0,-3698.3359"
       id="path3149"
       inkscape:connector-curvature="0" />
    <path
       style="fill:none;stroke:#000000;stroke-width:0.14105543"
       d="m -10360.963,5055.5589 5200.2356,0"
       id="path3151"
       inkscape:connector-curvature="0" />
    <path
       style="fill:none;stroke:#000000;stroke-width:0.14105543"
       d="m -10360.963,8755.8939 0,-3700.335"
       id="path3153"
       inkscape:connector-curvature="0" />
    <path
       style="fill:none;stroke:#000000;stroke-width:0.14105543"
       d="m -10360.963,8755.8939 5200.2356,0"
       id="path3155"
       inkscape:connector-curvature="0" />
    <path
       style="fill:none;stroke:#000000;stroke-width:0.14105543"
       d="m -5160.7274,8755.8939 0,-3700.335"
       id="path3157"
       inkscape:connector-curvature="0" />
    <path
       style="fill:none;stroke:#000000;stroke-width:0.14105543"
       d="m -10409.945,5006.581 5298.201,0"
       id="path3159"
       inkscape:connector-curvature="0" />
    <path
       style="fill:none;stroke:#000000;stroke-width:0.14105543"
       d="m -5111.744,8804.8719 0,-3798.2909"
       id="path3161"
       inkscape:connector-curvature="0" />
    <path
       style="fill:none;stroke:#000000;stroke-width:0.14105543"
       d="m -10409.945,8804.8719 5298.201,0"
       id="path3163"
       inkscape:connector-curvature="0" />
    <path
       style="fill:none;stroke:#000000;stroke-width:0.14105543"
       d="m -10409.945,8804.8719 0,-3798.2909"
       id="path3165"
       inkscape:connector-curvature="0" />
    <path
       style="fill:none;stroke:#000000;stroke-width:0.14105543"
       d="m -10410.946,5005.5814 5300.2016,0"
       id="path3167"
       inkscape:connector-curvature="0" />
    <path
       style="fill:none;stroke:#000000;stroke-width:0.14105543"
       d="m -10410.946,8805.8714 0,-3800.29"
       id="path3169"
       inkscape:connector-curvature="0" />
    <path
       style="fill:none;stroke:#000000;stroke-width:0.14105543"
       d="m -10410.946,8805.8714 5300.2016,0"
       id="path3171"
       inkscape:connector-curvature="0" />
    <path
       style="fill:none;stroke:#000000;stroke-width:0.14105543"
       d="m -5110.7444,8805.8714 0,-3800.29"
       id="path3173"
       inkscape:connector-curvature="0" />
    <path
       style="fill:none;stroke:#000000;stroke-width:0.14105543"
       d="m -10809.81,9204.692 6097.9304,0"
       id="path3175"
       inkscape:connector-curvature="0" />
    <path
       style="fill:none;stroke:#000000;stroke-width:0.14105543"
       d="m -10809.81,9204.692 0,-4597.9311"
       id="path3177"
       inkscape:connector-curvature="0" />
    <path
       style="fill:none;stroke:#000000;stroke-width:0.14105543"
       d="m -10809.81,4606.7609 6097.9304,0"
       id="path3179"
       inkscape:connector-curvature="0" />
    <path
       style="fill:none;stroke:#000000;stroke-width:0.14105543"
       d="m -4711.8796,9204.692 0,-4597.9311"
       id="path3181"
       inkscape:connector-curvature="0" />
    <path
       style="fill:none;stroke:#000000;stroke-width:0.14105543"
       d="m -10810.809,9205.6915 0,-4599.9301"
       id="path3183"
       inkscape:connector-curvature="0" />
    <path
       style="fill:none;stroke:#000000;stroke-width:0.14105543"
       d="m -10810.809,9205.6915 6099.929,0"
       id="path3185"
       inkscape:connector-curvature="0" />
    <path
       style="fill:none;stroke:#000000;stroke-width:0.14105543"
       d="m -4710.88,9205.6915 0,-4599.9301"
       id="path3187"
       inkscape:connector-curvature="0" />
    <path
       style="fill:none;stroke:#000000;stroke-width:0.14105543"
       d="m -10810.809,4605.7614 6099.929,0"
       id="path3189"
       inkscape:connector-curvature="0" />
    <path
       style="fill:#00ff00"
       d="m 3080.0318,3222.1334 0,-521.0145 35.0206,-4.116 c 19.2613,-2.2638 55.2773,-11.9817 80.0356,-21.5954 118.1396,-45.8737 204.1736,-139.5671 241.968,-263.5096 21.5591,-70.7007 19.8414,-165.5802 -4.2969,-237.3499 -33.9044,-100.8068 -103.8095,-183.0245 -196.0347,-230.5628 -45.0493,-23.221 -113.5893,-44.5873 -143.0294,-44.5873 l -13.6632,0 0,-521.875 0,-521.87504 1084.375,0 1084.375,0 0,383.31064 0,383.3106 -51.5625,11.0535 c -196.6055,42.1467 -348.5991,192.4688 -389.0515,384.7729 -13.1949,62.7263 -13.4385,501.7824 -0.3125,563.7142 18.6171,87.8423 58.8217,164.2282 122.1767,232.1268 50.1451,53.7415 93.6024,86.3365 151.9829,113.9947 42.5907,20.1777 130.4344,46.4667 155.2666,46.4667 11.0423,0 11.5003,15.3051 11.5003,384.375 l 0,384.375 -1084.375,0 -1084.375,0 0,-521.0145 z"
       id="path3205"
       inkscape:connector-curvature="0"
       transform="translate(-10810.88,4605.7614)" />
    <path
       style="fill:#00ff00"
       d="m 855.03176,3359.4805 0,-383.6673 42.1875,-7.684 c 185.71184,-33.8255 334.83184,-173.5255 390.25934,-365.6063 14.0103,-48.5521 14.4282,-57.3302 14.4282,-303.125 0,-245.5564 -0.4303,-254.6201 -14.389,-303.125 -56.4636,-196.2044 -211.811,-336.1869 -409.04854,-368.5909 l -23.4375,-3.8506 0,-384.0917 0,-384.09184 1084.37504,0 1084.375,0 0,521.01454 0,521.0145 -34.177,4.0168 c -140.6214,16.5273 -277.934,132.4784 -322.9439,272.7042 -18.3897,57.2921 -22.5143,153.556 -9.1526,213.6141 26.4835,119.038 102.0403,216.3814 210.2501,270.875 44.7117,22.5164 105.3935,40.5109 136.613,40.5109 l 19.4104,0 0,521.875 0,521.875 -1084.375,0 -1084.37504,0 0,-383.6674 z"
       id="path3207"
       inkscape:connector-curvature="0"
       transform="translate(-10810.88,4605.7614)" />
    <path
       style="fill:#00ff00"
       d="m 2961.7463,2633.2086 c -117.89,-31.6938 -216.7648,-133.1498 -246.5245,-252.96 -27.8709,-112.2061 2.0609,-224.968 83.1802,-313.365 52.3368,-57.0321 125.0648,-96.6005 198.8173,-108.1682 l 26.5625,-4.1663 0,344.2994 0,344.2994 -14.0625,-0.4113 c -7.7344,-0.2262 -29.3223,-4.5138 -47.973,-9.5279 l 0,-1e-4 z"
       id="path3209"
       inkscape:connector-curvature="0"
       transform="translate(-10810.88,4605.7614)" />
    <path
       style="fill:#00ff00"
       d="m 3080.0318,2299.8734 0,-344.3733 26.5625,4.0693 c 124.4578,19.0666 235.2952,117.9917 274.5325,245.0272 15.6973,50.8222 16.4568,134.7328 1.6839,186.0537 -37.3316,129.6899 -147.5894,229.2554 -276.2164,249.4301 l -26.5625,4.1662 0,-344.3732 z"
       id="path3211"
       inkscape:connector-curvature="0"
       transform="translate(-10810.88,4605.7614)" />
    <path
       style="fill:#00ff00"
       d="m 855.03176,2299.8581 0,-617.5038 32.8125,5.8976 c 124.03494,22.2937 252.53744,120.7579 309.72584,237.3255 47.2943,96.4004 48.0867,102.5601 48.0867,373.8205 0,231.3231 -0.5462,242.5093 -14.1277,289.3698 -34.8005,120.0722 -107.535,213.3731 -214.6589,275.3558 -32.8743,19.0214 -103.78283,44.4876 -138.40094,49.7057 l -23.4375,3.5328 0,-617.5039 z"
       id="path3213"
       inkscape:connector-curvature="0"
       transform="translate(-10810.88,4605.7614)" />
    <path
       style="fill:#00ff00"
       d="m 5188.2917,2905.6997 c -125.0081,-32.7669 -229.6627,-118.1913 -286.9082,-234.1891 -43.334,-87.8086 -46.1184,-110.0956 -46.2432,-370.1416 -0.1211,-252.3976 3.1432,-282.0879 39.6016,-360.1941 63.0535,-135.0817 184.3997,-228.3089 333.7274,-256.3942 l 20.3125,-3.8203 0,618.5937 c 0,490.8919 -1.6128,618.5227 -7.8125,618.2496 -4.2969,-0.1893 -28.0018,-5.6361 -52.6776,-12.104 z"
       id="path3215"
       inkscape:connector-curvature="0"
       transform="translate(-10810.88,4605.7614)" />
    <path
       style="fill:#00ff00"
       d="m 455.03175,2299.3979 0,-1843.75004 2596.87505,0 2596.875,0 0,1843.75004 0,1843.75 -2596.875,0 -2596.87505,0 0,-1843.75 z m 4850.00005,0 0,-1506.25004 -2253.125,0 -2253.12504,0 0,1506.25004 0,1506.25 2253.12504,0 2253.125,0 0,-1506.25 z"
       id="path3217"
       inkscape:connector-curvature="0"
       transform="translate(-10810.88,4605.7614)" />
    <path
       style="fill:#00ff00"
       d="m 5.0317537,2299.3979 0,-2293.7500459 3043.7500463,0 3043.75,0 0,2293.7500459 0,2293.75 -3043.75,0 -3043.7500463,0 0,-2293.75 z m 5700.0000463,3.125 0,-1903.12505 -2653.125,0 -2653.12505,0 0,1903.12505 0,1903.125 2653.12505,0 2653.125,0 0,-1903.125 z"
       id="path3219"
       inkscape:connector-curvature="0"
       transform="translate(-10810.88,4605.7614)" />
    <path
       style="fill:#000000"
       d=""
       id="path3223"
       inkscape:connector-curvature="0"
       transform="translate(-10810.88,4605.7614)" />
  </g>
</svg>
